<?xml version="1.0" encoding="utf-8" standalone="no"?>
<!DOCTYPE svg PUBLIC "-//W3C//DTD SVG 1.1//EN"
  "http://www.w3.org/Graphics/SVG/1.1/DTD/svg11.dtd">
<svg xmlns:xlink="http://www.w3.org/1999/xlink" width="864pt" height="576pt" viewBox="0 0 864 576" xmlns="http://www.w3.org/2000/svg" version="1.1">
 <metadata>
  <rdf:RDF xmlns:dc="http://purl.org/dc/elements/1.1/" xmlns:cc="http://creativecommons.org/ns#" xmlns:rdf="http://www.w3.org/1999/02/22-rdf-syntax-ns#">
   <cc:Work>
    <dc:type rdf:resource="http://purl.org/dc/dcmitype/StillImage"/>
    <dc:date>2025-09-25T15:59:54.053452</dc:date>
    <dc:format>image/svg+xml</dc:format>
    <dc:creator>
     <cc:Agent>
      <dc:title>Matplotlib v3.10.6, https://matplotlib.org/</dc:title>
     </cc:Agent>
    </dc:creator>
   </cc:Work>
  </rdf:RDF>
 </metadata>
 <defs>
  <style type="text/css">*{stroke-linejoin: round; stroke-linecap: butt}</style>
 </defs>
 <g id="figure_1">
  <g id="patch_1">
   <path d="M 0 576 
L 864 576 
L 864 0 
L 0 0 
z
" style="fill: #ffffff"/>
  </g>
  <g id="axes_1">
   <g id="patch_2">
    <path d="M 58.075 134.405 
L 853.2 134.405 
L 853.2 26.916 
L 58.075 26.916 
z
" style="fill: #ffffff"/>
   </g>
   <g id="matplotlib.axis_1">
    <g id="xtick_1">
     <g id="line2d_1">
      <defs>
       <path id="mf84847b3d6" d="M 0 0 
L 0 3.5 
" style="stroke: #000000; stroke-width: 0.8"/>
      </defs>
      <g>
       <use xlink:href="#mf84847b3d6" x="94.217045" y="134.405" style="stroke: #000000; stroke-width: 0.8"/>
      </g>
     </g>
    </g>
    <g id="xtick_2">
     <g id="line2d_2">
      <g>
       <use xlink:href="#mf84847b3d6" x="235.396911" y="134.405" style="stroke: #000000; stroke-width: 0.8"/>
      </g>
     </g>
    </g>
    <g id="xtick_3">
     <g id="line2d_3">
      <g>
       <use xlink:href="#mf84847b3d6" x="376.576776" y="134.405" style="stroke: #000000; stroke-width: 0.8"/>
      </g>
     </g>
    </g>
    <g id="xtick_4">
     <g id="line2d_4">
      <g>
       <use xlink:href="#mf84847b3d6" x="517.756641" y="134.405" style="stroke: #000000; stroke-width: 0.8"/>
      </g>
     </g>
    </g>
    <g id="xtick_5">
     <g id="line2d_5">
      <g>
       <use xlink:href="#mf84847b3d6" x="658.936506" y="134.405" style="stroke: #000000; stroke-width: 0.8"/>
      </g>
     </g>
    </g>
    <g id="xtick_6">
     <g id="line2d_6">
      <g>
       <use xlink:href="#mf84847b3d6" x="800.116371" y="134.405" style="stroke: #000000; stroke-width: 0.8"/>
      </g>
     </g>
    </g>
   </g>
   <g id="matplotlib.axis_2">
    <g id="ytick_1">
     <g id="line2d_7">
      <defs>
       <path id="m4fb9c69809" d="M 0 0 
L -3.5 0 
" style="stroke: #000000; stroke-width: 0.8"/>
      </defs>
      <g>
       <use xlink:href="#m4fb9c69809" x="58.075" y="113.232924" style="stroke: #000000; stroke-width: 0.8"/>
      </g>
     </g>
     <g id="text_1">
      <!-- −20000 -->
      <g transform="translate(10.882812 117.032143) scale(0.1 -0.1)">
       <defs>
        <path id="DejaVuSans-2212" d="M 678 2272 
L 4684 2272 
L 4684 1741 
L 678 1741 
L 678 2272 
z
" transform="scale(0.015625)"/>
        <path id="DejaVuSans-32" d="M 1228 531 
L 3431 531 
L 3431 0 
L 469 0 
L 469 531 
Q 828 903 1448 1529 
Q 2069 2156 2228 2338 
Q 2531 2678 2651 2914 
Q 2772 3150 2772 3378 
Q 2772 3750 2511 3984 
Q 2250 4219 1831 4219 
Q 1534 4219 1204 4116 
Q 875 4013 500 3803 
L 500 4441 
Q 881 4594 1212 4672 
Q 1544 4750 1819 4750 
Q 2544 4750 2975 4387 
Q 3406 4025 3406 3419 
Q 3406 3131 3298 2873 
Q 3191 2616 2906 2266 
Q 2828 2175 2409 1742 
Q 1991 1309 1228 531 
z
" transform="scale(0.015625)"/>
        <path id="DejaVuSans-30" d="M 2034 4250 
Q 1547 4250 1301 3770 
Q 1056 3291 1056 2328 
Q 1056 1369 1301 889 
Q 1547 409 2034 409 
Q 2525 409 2770 889 
Q 3016 1369 3016 2328 
Q 3016 3291 2770 3770 
Q 2525 4250 2034 4250 
z
M 2034 4750 
Q 2819 4750 3233 4129 
Q 3647 3509 3647 2328 
Q 3647 1150 3233 529 
Q 2819 -91 2034 -91 
Q 1250 -91 836 529 
Q 422 1150 422 2328 
Q 422 3509 836 4129 
Q 1250 4750 2034 4750 
z
" transform="scale(0.015625)"/>
       </defs>
       <use xlink:href="#DejaVuSans-2212"/>
       <use xlink:href="#DejaVuSans-32" transform="translate(83.789062 0)"/>
       <use xlink:href="#DejaVuSans-30" transform="translate(147.412109 0)"/>
       <use xlink:href="#DejaVuSans-30" transform="translate(211.035156 0)"/>
       <use xlink:href="#DejaVuSans-30" transform="translate(274.658203 0)"/>
       <use xlink:href="#DejaVuSans-30" transform="translate(338.28125 0)"/>
      </g>
     </g>
    </g>
    <g id="ytick_2">
     <g id="line2d_8">
      <g>
       <use xlink:href="#m4fb9c69809" x="58.075" y="80.6605" style="stroke: #000000; stroke-width: 0.8"/>
      </g>
     </g>
     <g id="text_2">
      <!-- 0 -->
      <g transform="translate(44.7125 84.459719) scale(0.1 -0.1)">
       <use xlink:href="#DejaVuSans-30"/>
      </g>
     </g>
    </g>
    <g id="ytick_3">
     <g id="line2d_9">
      <g>
       <use xlink:href="#m4fb9c69809" x="58.075" y="48.088076" style="stroke: #000000; stroke-width: 0.8"/>
      </g>
     </g>
     <g id="text_3">
      <!-- 20000 -->
      <g transform="translate(19.2625 51.887295) scale(0.1 -0.1)">
       <use xlink:href="#DejaVuSans-32"/>
       <use xlink:href="#DejaVuSans-30" transform="translate(63.623047 0)"/>
       <use xlink:href="#DejaVuSans-30" transform="translate(127.246094 0)"/>
       <use xlink:href="#DejaVuSans-30" transform="translate(190.869141 0)"/>
       <use xlink:href="#DejaVuSans-30" transform="translate(254.492188 0)"/>
      </g>
     </g>
    </g>
   </g>
   <g id="line2d_10">
    <path d="M 94.217045 80.6605 
L 249.232537 80.549754 
L 314.881175 79.903191 
L 326.175564 79.792445 
L 391.541841 79.14914 
L 402.83623 79.038393 
L 416.248318 78.994421 
L 435.731139 78.994421 
L 435.872319 80.6605 
L 534.557045 80.6605 
L 534.698224 80.090483 
L 591.028991 80.090483 
L 591.17017 79.520465 
L 647.500937 79.520465 
L 647.642116 80.090483 
L 703.972883 80.090483 
L 704.114062 80.6605 
L 760.444829 80.6605 
L 760.586009 79.846189 
L 817.057955 79.846189 
L 817.057955 79.846189 
" clip-path="url(#p0abd5fa967)" style="fill: none; stroke: #1f77b4; stroke-linecap: square"/>
   </g>
   <g id="line2d_11">
    <path d="M 94.217045 80.6605 
L 167.348216 80.6605 
L 167.489395 79.719157 
L 168.618834 79.650755 
L 170.171813 79.342945 
L 171.583612 79.012335 
L 176.242547 79.033507 
L 177.089626 79.009078 
L 817.057955 79.009078 
L 817.057955 79.009078 
" clip-path="url(#p0abd5fa967)" style="fill: none; stroke: #ff7f0e; stroke-linecap: square"/>
   </g>
   <g id="line2d_12">
    <path d="M 94.217045 80.6605 
L 167.348216 80.6605 
L 167.489395 129.519136 
L 405.518648 129.519136 
L 405.659828 129.225985 
L 405.801008 129.519136 
L 405.942188 125.854739 
L 406.083367 129.079409 
L 406.224547 129.079409 
L 406.506907 128.102236 
L 406.789267 127.418215 
L 406.930447 127.369356 
L 407.212806 126.636477 
L 407.353986 122.336917 
L 407.495166 126.050173 
L 407.636346 123.509524 
L 407.777526 125.80588 
L 407.918706 125.708163 
L 408.059885 124.682131 
L 408.201065 125.512728 
L 408.342245 125.415011 
L 408.483425 124.73099 
L 408.624605 125.80588 
L 408.906965 124.144686 
L 409.048145 122.825503 
L 409.189324 125.073 
L 409.330504 123.802676 
L 409.471684 124.584414 
L 410.036404 124.242404 
L 410.177583 124.437838 
L 410.318763 124.046969 
L 410.601123 123.900393 
L 410.742303 122.288058 
L 410.883483 123.6561 
L 411.024663 122.043765 
L 411.307022 123.31409 
L 411.730562 123.069796 
L 412.295281 122.727786 
L 412.436461 121.408603 
L 412.718821 122.092624 
L 412.860001 121.994906 
L 413.001181 122.190341 
L 413.5659 121.84833 
L 413.70708 120.871158 
L 413.84826 121.017734 
L 413.98944 121.555179 
L 414.13062 119.942844 
L 414.2718 120.08942 
L 414.412979 119.35654 
L 414.554159 121.017734 
L 414.836519 120.871158 
L 414.977699 120.187137 
L 415.118879 120.675723 
L 415.401238 120.480289 
L 415.542418 120.08942 
L 415.683598 120.284854 
L 415.824778 119.01453 
L 415.965958 120.08942 
L 416.107138 117.597629 
L 416.248318 119.845126 
L 416.389498 119.454257 
L 416.530677 119.649692 
L 417.095397 119.307681 
L 417.236577 118.916812 
L 417.377757 119.112247 
L 417.518936 119.01453 
L 417.660116 115.594425 
L 417.801296 118.428226 
L 417.942476 118.62366 
L 418.366016 118.379367 
L 418.648375 118.183933 
L 418.789555 117.793064 
L 418.930735 118.037357 
L 419.071915 117.93964 
L 419.213095 115.39899 
L 419.354275 117.060184 
L 419.495455 113.64008 
L 419.777814 116.913608 
L 419.918994 117.109043 
L 420.060174 116.425022 
L 420.201354 116.913608 
L 420.624893 116.669315 
L 420.766073 116.571598 
L 420.907253 114.372959 
L 421.048433 114.812687 
L 421.189613 114.666111 
L 421.330793 114.861545 
L 421.471973 115.936435 
L 421.613153 115.838718 
L 421.754332 114.861545 
L 421.895512 115.643284 
L 422.036692 115.545566 
L 422.177872 114.861545 
L 422.319052 115.350132 
L 422.460232 115.252415 
L 422.742591 114.763828 
L 422.883771 115.008121 
L 423.166131 114.519535 
L 423.307311 114.71497 
L 423.73085 114.421818 
L 423.87203 113.444645 
L 424.01321 114.226383 
L 424.15439 114.128666 
L 424.29557 110.122258 
L 424.43675 113.835514 
L 424.57793 112.56519 
L 424.860289 113.542362 
L 425.001469 113.444645 
L 425.142649 113.053776 
L 425.283829 113.24921 
L 425.425009 113.151493 
L 425.566189 112.17432 
L 425.707369 112.956059 
L 425.848548 112.858341 
L 426.130908 108.998509 
L 426.272088 112.418614 
L 426.695628 112.17432 
L 426.836808 111.148289 
L 426.977987 111.930027 
L 427.119167 111.881169 
L 427.260347 110.855137 
L 427.401527 111.636875 
L 427.542707 111.588017 
L 427.683887 110.268834 
L 427.825067 111.343724 
L 429.236865 110.464268 
L 429.378045 108.851933 
L 429.660405 110.122258 
L 429.801585 110.073399 
L 429.942765 109.68253 
L 430.083944 109.877965 
L 430.366304 109.68253 
L 430.507484 109.291661 
L 430.648664 109.487095 
L 430.931024 108.070195 
L 431.072203 109.193944 
L 431.213383 108.461064 
L 431.354563 108.998509 
L 431.778103 108.705357 
L 431.919283 108.314488 
L 432.060463 108.509923 
L 432.342822 108.363347 
L 432.484002 108.851933 
L 432.766362 105.334111 
L 432.907542 107.923619 
L 433.331081 107.630467 
L 433.472261 107.239598 
L 433.613441 107.435033 
L 433.754621 107.386174 
L 433.895801 107.581609 
L 434.178161 107.093022 
L 434.46052 104.796666 
L 434.6017 106.751012 
L 434.74288 106.946446 
L 434.88406 106.262425 
L 435.02524 106.45786 
L 435.448779 106.213567 
L 435.589959 105.529546 
L 435.731139 106.018132 
L 435.872319 129.519136 
L 817.057955 129.519136 
L 817.057955 129.519136 
" clip-path="url(#p0abd5fa967)" style="fill: none; stroke: #2ca02c; stroke-linecap: square"/>
   </g>
   <g id="line2d_13">
    <path d="M 58.075 80.6605 
L 853.2 80.6605 
" clip-path="url(#p0abd5fa967)" style="fill: none; stroke: #000000; stroke-width: 0.5; stroke-linecap: square"/>
   </g>
   <g id="patch_3">
    <path d="M 58.075 134.405 
L 58.075 26.916 
" style="fill: none; stroke: #000000; stroke-width: 0.8; stroke-linejoin: miter; stroke-linecap: square"/>
   </g>
   <g id="patch_4">
    <path d="M 853.2 134.405 
L 853.2 26.916 
" style="fill: none; stroke: #000000; stroke-width: 0.8; stroke-linejoin: miter; stroke-linecap: square"/>
   </g>
   <g id="patch_5">
    <path d="M 58.075 134.405 
L 853.2 134.405 
" style="fill: none; stroke: #000000; stroke-width: 0.8; stroke-linejoin: miter; stroke-linecap: square"/>
   </g>
   <g id="patch_6">
    <path d="M 58.075 26.916 
L 853.2 26.916 
" style="fill: none; stroke: #000000; stroke-width: 0.8; stroke-linejoin: miter; stroke-linecap: square"/>
   </g>
   <g id="text_4">
    <!-- $K_p = 6.00$,  $K_i = 2.00$,  $K_d = 0.0350$,  $f_c = 60.00$ -->
    <g transform="translate(320.6975 20.916) scale(0.12 -0.12)">
     <defs>
      <path id="DejaVuSans-Oblique-4b" d="M 1081 4666 
L 1716 4666 
L 1331 2700 
L 3781 4666 
L 4622 4666 
L 1850 2438 
L 3878 0 
L 3109 0 
L 1247 2272 
L 806 0 
L 172 0 
L 1081 4666 
z
" transform="scale(0.015625)"/>
      <path id="DejaVuSans-Oblique-70" d="M 3175 2156 
Q 3175 2616 2975 2859 
Q 2775 3103 2400 3103 
Q 2144 3103 1911 2972 
Q 1678 2841 1497 2591 
Q 1319 2344 1212 1994 
Q 1106 1644 1106 1300 
Q 1106 863 1306 627 
Q 1506 391 1875 391 
Q 2147 391 2380 519 
Q 2613 647 2778 891 
Q 2956 1147 3065 1494 
Q 3175 1841 3175 2156 
z
M 1394 2969 
Q 1625 3272 1939 3428 
Q 2253 3584 2638 3584 
Q 3175 3584 3472 3232 
Q 3769 2881 3769 2247 
Q 3769 1728 3584 1258 
Q 3400 788 3053 416 
Q 2822 169 2531 39 
Q 2241 -91 1919 -91 
Q 1547 -91 1294 64 
Q 1041 219 916 525 
L 556 -1331 
L -19 -1331 
L 922 3500 
L 1497 3500 
L 1394 2969 
z
" transform="scale(0.015625)"/>
      <path id="DejaVuSans-3d" d="M 678 2906 
L 4684 2906 
L 4684 2381 
L 678 2381 
L 678 2906 
z
M 678 1631 
L 4684 1631 
L 4684 1100 
L 678 1100 
L 678 1631 
z
" transform="scale(0.015625)"/>
      <path id="DejaVuSans-36" d="M 2113 2584 
Q 1688 2584 1439 2293 
Q 1191 2003 1191 1497 
Q 1191 994 1439 701 
Q 1688 409 2113 409 
Q 2538 409 2786 701 
Q 3034 994 3034 1497 
Q 3034 2003 2786 2293 
Q 2538 2584 2113 2584 
z
M 3366 4563 
L 3366 3988 
Q 3128 4100 2886 4159 
Q 2644 4219 2406 4219 
Q 1781 4219 1451 3797 
Q 1122 3375 1075 2522 
Q 1259 2794 1537 2939 
Q 1816 3084 2150 3084 
Q 2853 3084 3261 2657 
Q 3669 2231 3669 1497 
Q 3669 778 3244 343 
Q 2819 -91 2113 -91 
Q 1303 -91 875 529 
Q 447 1150 447 2328 
Q 447 3434 972 4092 
Q 1497 4750 2381 4750 
Q 2619 4750 2861 4703 
Q 3103 4656 3366 4563 
z
" transform="scale(0.015625)"/>
      <path id="DejaVuSans-2e" d="M 684 794 
L 1344 794 
L 1344 0 
L 684 0 
L 684 794 
z
" transform="scale(0.015625)"/>
      <path id="DejaVuSans-2c" d="M 750 794 
L 1409 794 
L 1409 256 
L 897 -744 
L 494 -744 
L 750 256 
L 750 794 
z
" transform="scale(0.015625)"/>
      <path id="DejaVuSans-20" transform="scale(0.015625)"/>
      <path id="DejaVuSans-Oblique-69" d="M 1172 4863 
L 1747 4863 
L 1606 4134 
L 1031 4134 
L 1172 4863 
z
M 909 3500 
L 1484 3500 
L 800 0 
L 225 0 
L 909 3500 
z
" transform="scale(0.015625)"/>
      <path id="DejaVuSans-Oblique-64" d="M 2675 525 
Q 2444 222 2128 65 
Q 1813 -91 1428 -91 
Q 903 -91 598 267 
Q 294 625 294 1247 
Q 294 1766 478 2236 
Q 663 2706 1013 3078 
Q 1244 3325 1534 3454 
Q 1825 3584 2144 3584 
Q 2481 3584 2739 3421 
Q 2997 3259 3138 2956 
L 3513 4863 
L 4091 4863 
L 3144 0 
L 2566 0 
L 2675 525 
z
M 891 1350 
Q 891 897 1095 644 
Q 1300 391 1663 391 
Q 1931 391 2161 520 
Q 2391 650 2566 903 
Q 2750 1166 2856 1509 
Q 2963 1853 2963 2188 
Q 2963 2622 2758 2865 
Q 2553 3109 2194 3109 
Q 1922 3109 1687 2981 
Q 1453 2853 1288 2613 
Q 1106 2353 998 2009 
Q 891 1666 891 1350 
z
" transform="scale(0.015625)"/>
      <path id="DejaVuSans-33" d="M 2597 2516 
Q 3050 2419 3304 2112 
Q 3559 1806 3559 1356 
Q 3559 666 3084 287 
Q 2609 -91 1734 -91 
Q 1441 -91 1130 -33 
Q 819 25 488 141 
L 488 750 
Q 750 597 1062 519 
Q 1375 441 1716 441 
Q 2309 441 2620 675 
Q 2931 909 2931 1356 
Q 2931 1769 2642 2001 
Q 2353 2234 1838 2234 
L 1294 2234 
L 1294 2753 
L 1863 2753 
Q 2328 2753 2575 2939 
Q 2822 3125 2822 3475 
Q 2822 3834 2567 4026 
Q 2313 4219 1838 4219 
Q 1578 4219 1281 4162 
Q 984 4106 628 3988 
L 628 4550 
Q 988 4650 1302 4700 
Q 1616 4750 1894 4750 
Q 2613 4750 3031 4423 
Q 3450 4097 3450 3541 
Q 3450 3153 3228 2886 
Q 3006 2619 2597 2516 
z
" transform="scale(0.015625)"/>
      <path id="DejaVuSans-35" d="M 691 4666 
L 3169 4666 
L 3169 4134 
L 1269 4134 
L 1269 2991 
Q 1406 3038 1543 3061 
Q 1681 3084 1819 3084 
Q 2600 3084 3056 2656 
Q 3513 2228 3513 1497 
Q 3513 744 3044 326 
Q 2575 -91 1722 -91 
Q 1428 -91 1123 -41 
Q 819 9 494 109 
L 494 744 
Q 775 591 1075 516 
Q 1375 441 1709 441 
Q 2250 441 2565 725 
Q 2881 1009 2881 1497 
Q 2881 1984 2565 2268 
Q 2250 2553 1709 2553 
Q 1456 2553 1204 2497 
Q 953 2441 691 2322 
L 691 4666 
z
" transform="scale(0.015625)"/>
      <path id="DejaVuSans-Oblique-66" d="M 3059 4863 
L 2969 4384 
L 2419 4384 
Q 2106 4384 1964 4261 
Q 1822 4138 1753 3809 
L 1691 3500 
L 2638 3500 
L 2553 3053 
L 1606 3053 
L 1013 0 
L 434 0 
L 1031 3053 
L 481 3053 
L 563 3500 
L 1113 3500 
L 1159 3744 
Q 1278 4363 1576 4613 
Q 1875 4863 2516 4863 
L 3059 4863 
z
" transform="scale(0.015625)"/>
      <path id="DejaVuSans-Oblique-63" d="M 3431 3366 
L 3316 2797 
Q 3109 2947 2876 3022 
Q 2644 3097 2394 3097 
Q 2119 3097 1870 3000 
Q 1622 2903 1453 2725 
Q 1184 2453 1037 2087 
Q 891 1722 891 1331 
Q 891 859 1127 628 
Q 1363 397 1844 397 
Q 2081 397 2348 469 
Q 2616 541 2906 684 
L 2797 116 
Q 2547 13 2283 -39 
Q 2019 -91 1741 -91 
Q 1044 -91 669 257 
Q 294 606 294 1253 
Q 294 1797 489 2255 
Q 684 2713 1069 3078 
Q 1331 3328 1684 3456 
Q 2038 3584 2456 3584 
Q 2700 3584 2940 3529 
Q 3181 3475 3431 3366 
z
" transform="scale(0.015625)"/>
     </defs>
     <use xlink:href="#DejaVuSans-Oblique-4b" transform="translate(0 0.015625)"/>
     <use xlink:href="#DejaVuSans-Oblique-70" transform="translate(65.576172 -16.390625) scale(0.7)"/>
     <use xlink:href="#DejaVuSans-3d" transform="translate(132.226562 0.015625)"/>
     <use xlink:href="#DejaVuSans-36" transform="translate(235.498047 0.015625)"/>
     <use xlink:href="#DejaVuSans-2e" transform="translate(299.121094 0.015625)"/>
     <use xlink:href="#DejaVuSans-30" transform="translate(330.908203 0.015625)"/>
     <use xlink:href="#DejaVuSans-30" transform="translate(394.53125 0.015625)"/>
     <use xlink:href="#DejaVuSans-2c" transform="translate(458.154297 0.015625)"/>
     <use xlink:href="#DejaVuSans-20" transform="translate(489.941406 0.015625)"/>
     <use xlink:href="#DejaVuSans-20" transform="translate(521.728516 0.015625)"/>
     <use xlink:href="#DejaVuSans-Oblique-4b" transform="translate(553.515625 0.015625)"/>
     <use xlink:href="#DejaVuSans-Oblique-69" transform="translate(619.091797 -16.390625) scale(0.7)"/>
     <use xlink:href="#DejaVuSans-3d" transform="translate(660.756836 0.015625)"/>
     <use xlink:href="#DejaVuSans-32" transform="translate(764.02832 0.015625)"/>
     <use xlink:href="#DejaVuSans-2e" transform="translate(827.651367 0.015625)"/>
     <use xlink:href="#DejaVuSans-30" transform="translate(859.438477 0.015625)"/>
     <use xlink:href="#DejaVuSans-30" transform="translate(923.061523 0.015625)"/>
     <use xlink:href="#DejaVuSans-2c" transform="translate(986.68457 0.015625)"/>
     <use xlink:href="#DejaVuSans-20" transform="translate(1018.47168 0.015625)"/>
     <use xlink:href="#DejaVuSans-20" transform="translate(1050.258789 0.015625)"/>
     <use xlink:href="#DejaVuSans-Oblique-4b" transform="translate(1082.045898 0.015625)"/>
     <use xlink:href="#DejaVuSans-Oblique-64" transform="translate(1147.62207 -16.390625) scale(0.7)"/>
     <use xlink:href="#DejaVuSans-3d" transform="translate(1214.272461 0.015625)"/>
     <use xlink:href="#DejaVuSans-30" transform="translate(1317.543945 0.015625)"/>
     <use xlink:href="#DejaVuSans-2e" transform="translate(1381.166992 0.015625)"/>
     <use xlink:href="#DejaVuSans-30" transform="translate(1412.954102 0.015625)"/>
     <use xlink:href="#DejaVuSans-33" transform="translate(1476.577148 0.015625)"/>
     <use xlink:href="#DejaVuSans-35" transform="translate(1540.200195 0.015625)"/>
     <use xlink:href="#DejaVuSans-30" transform="translate(1603.823242 0.015625)"/>
     <use xlink:href="#DejaVuSans-2c" transform="translate(1667.446289 0.015625)"/>
     <use xlink:href="#DejaVuSans-20" transform="translate(1699.233398 0.015625)"/>
     <use xlink:href="#DejaVuSans-20" transform="translate(1731.020508 0.015625)"/>
     <use xlink:href="#DejaVuSans-Oblique-66" transform="translate(1762.807617 0.015625)"/>
     <use xlink:href="#DejaVuSans-Oblique-63" transform="translate(1798.012695 -16.390625) scale(0.7)"/>
     <use xlink:href="#DejaVuSans-3d" transform="translate(1858.71582 0.015625)"/>
     <use xlink:href="#DejaVuSans-36" transform="translate(1961.987305 0.015625)"/>
     <use xlink:href="#DejaVuSans-30" transform="translate(2025.610352 0.015625)"/>
     <use xlink:href="#DejaVuSans-2e" transform="translate(2089.233398 0.015625)"/>
     <use xlink:href="#DejaVuSans-30" transform="translate(2121.020508 0.015625)"/>
     <use xlink:href="#DejaVuSans-30" transform="translate(2184.643555 0.015625)"/>
    </g>
   </g>
  </g>
  <g id="axes_2">
   <g id="patch_7">
    <path d="M 58.075 272.31 
L 853.2 272.31 
L 853.2 164.821 
L 58.075 164.821 
z
" style="fill: #ffffff"/>
   </g>
   <g id="matplotlib.axis_3">
    <g id="xtick_7">
     <g id="line2d_14">
      <g>
       <use xlink:href="#mf84847b3d6" x="94.217045" y="272.31" style="stroke: #000000; stroke-width: 0.8"/>
      </g>
     </g>
    </g>
    <g id="xtick_8">
     <g id="line2d_15">
      <g>
       <use xlink:href="#mf84847b3d6" x="235.396911" y="272.31" style="stroke: #000000; stroke-width: 0.8"/>
      </g>
     </g>
    </g>
    <g id="xtick_9">
     <g id="line2d_16">
      <g>
       <use xlink:href="#mf84847b3d6" x="376.576776" y="272.31" style="stroke: #000000; stroke-width: 0.8"/>
      </g>
     </g>
    </g>
    <g id="xtick_10">
     <g id="line2d_17">
      <g>
       <use xlink:href="#mf84847b3d6" x="517.756641" y="272.31" style="stroke: #000000; stroke-width: 0.8"/>
      </g>
     </g>
    </g>
    <g id="xtick_11">
     <g id="line2d_18">
      <g>
       <use xlink:href="#mf84847b3d6" x="658.936506" y="272.31" style="stroke: #000000; stroke-width: 0.8"/>
      </g>
     </g>
    </g>
    <g id="xtick_12">
     <g id="line2d_19">
      <g>
       <use xlink:href="#mf84847b3d6" x="800.116371" y="272.31" style="stroke: #000000; stroke-width: 0.8"/>
      </g>
     </g>
    </g>
   </g>
   <g id="matplotlib.axis_4">
    <g id="ytick_4">
     <g id="line2d_20">
      <g>
       <use xlink:href="#m4fb9c69809" x="58.075" y="251.137924" style="stroke: #000000; stroke-width: 0.8"/>
      </g>
     </g>
     <g id="text_5">
      <!-- −20000 -->
      <g transform="translate(10.882812 254.937143) scale(0.1 -0.1)">
       <use xlink:href="#DejaVuSans-2212"/>
       <use xlink:href="#DejaVuSans-32" transform="translate(83.789062 0)"/>
       <use xlink:href="#DejaVuSans-30" transform="translate(147.412109 0)"/>
       <use xlink:href="#DejaVuSans-30" transform="translate(211.035156 0)"/>
       <use xlink:href="#DejaVuSans-30" transform="translate(274.658203 0)"/>
       <use xlink:href="#DejaVuSans-30" transform="translate(338.28125 0)"/>
      </g>
     </g>
    </g>
    <g id="ytick_5">
     <g id="line2d_21">
      <g>
       <use xlink:href="#m4fb9c69809" x="58.075" y="218.5655" style="stroke: #000000; stroke-width: 0.8"/>
      </g>
     </g>
     <g id="text_6">
      <!-- 0 -->
      <g transform="translate(44.7125 222.364719) scale(0.1 -0.1)">
       <use xlink:href="#DejaVuSans-30"/>
      </g>
     </g>
    </g>
    <g id="ytick_6">
     <g id="line2d_22">
      <g>
       <use xlink:href="#m4fb9c69809" x="58.075" y="185.993076" style="stroke: #000000; stroke-width: 0.8"/>
      </g>
     </g>
     <g id="text_7">
      <!-- 20000 -->
      <g transform="translate(19.2625 189.792295) scale(0.1 -0.1)">
       <use xlink:href="#DejaVuSans-32"/>
       <use xlink:href="#DejaVuSans-30" transform="translate(63.623047 0)"/>
       <use xlink:href="#DejaVuSans-30" transform="translate(127.246094 0)"/>
       <use xlink:href="#DejaVuSans-30" transform="translate(190.869141 0)"/>
       <use xlink:href="#DejaVuSans-30" transform="translate(254.492188 0)"/>
      </g>
     </g>
    </g>
   </g>
   <g id="line2d_23">
    <path d="M 94.217045 218.5655 
L 249.232537 218.454754 
L 314.881175 217.808191 
L 326.175564 217.697445 
L 391.541841 217.05414 
L 402.83623 216.943393 
L 416.248318 216.89942 
L 435.731139 216.89942 
L 435.872319 218.5655 
L 534.557045 218.5655 
L 534.698224 217.995483 
L 591.028991 217.995483 
L 591.17017 217.425465 
L 647.500937 217.425465 
L 647.642116 217.995483 
L 703.972883 217.995483 
L 704.114062 218.5655 
L 760.444829 218.5655 
L 760.586009 217.751189 
L 817.057955 217.751189 
L 817.057955 217.751189 
" clip-path="url(#p09de869b19)" style="fill: none; stroke: #1f77b4; stroke-linecap: square"/>
   </g>
   <g id="line2d_24">
    <path d="M 94.217045 218.5655 
L 167.348216 218.5655 
L 167.489395 216.918964 
L 170.736532 216.914078 
L 173.842489 216.912449 
L 183.72508 216.918964 
L 186.972217 216.914078 
L 431.636923 217.015053 
L 433.472261 217.357063 
L 435.448779 217.873336 
L 437.707657 218.415667 
L 439.260636 218.5655 
L 793.904457 218.462897 
L 797.151594 217.752818 
L 798.986932 217.327748 
L 799.975191 217.370092 
L 801.528169 217.637186 
L 803.787047 218.135544 
L 804.634126 218.133915 
L 806.045925 217.917309 
L 808.728343 217.34892 
L 809.998961 217.466181 
L 812.116659 217.941738 
L 813.387278 218.161602 
L 814.375537 218.089943 
L 816.916775 217.544354 
L 817.057955 217.510153 
L 817.057955 217.510153 
" clip-path="url(#p09de869b19)" style="fill: none; stroke: #ff7f0e; stroke-linecap: square"/>
   </g>
   <g id="line2d_25">
    <path d="M 94.217045 218.5655 
L 167.348216 218.5655 
L 167.489395 267.424136 
L 404.389209 267.424136 
L 404.530389 266.740115 
L 404.671569 267.424136 
L 405.659828 267.424136 
L 405.942188 264.639194 
L 406.083367 266.642398 
L 406.224547 264.932346 
L 406.365727 265.714084 
L 406.506907 264.248325 
L 406.648087 264.639194 
L 406.789267 264.150608 
L 406.930447 263.222294 
L 407.071626 263.271152 
L 407.212806 262.63599 
L 407.353986 261.023655 
L 407.495166 261.512241 
L 407.636346 260.535069 
L 407.777526 260.730503 
L 407.918706 259.06931 
L 408.059885 259.215885 
L 408.201065 260.1442 
L 408.483425 258.825016 
L 408.765785 258.140995 
L 408.906965 257.456975 
L 409.048145 257.408116 
L 409.189324 257.017247 
L 409.471684 252.131383 
L 409.754044 254.76975 
L 409.895224 254.427739 
L 410.036404 253.401708 
L 410.177583 253.646001 
L 410.318763 253.30399 
L 410.459943 252.277959 
L 410.601123 252.522252 
L 410.742303 252.131383 
L 411.024663 250.323614 
L 411.165843 250.861059 
L 411.307022 248.857855 
L 411.448202 249.981603 
L 411.589382 249.297582 
L 411.730562 249.199865 
L 411.871742 248.857855 
L 412.012922 247.196661 
L 412.154102 248.027258 
L 412.577641 246.952368 
L 412.718821 245.926336 
L 412.860001 246.17063 
L 413.001181 243.825415 
L 413.142361 243.923132 
L 413.28354 244.70487 
L 414.13062 242.603949 
L 414.412979 238.011237 
L 414.695339 240.40531 
L 415.542418 238.25553 
L 415.683598 236.936347 
L 415.824778 237.473792 
L 415.965958 237.082923 
L 416.107138 235.42173 
L 416.248318 235.910316 
L 416.389498 235.519447 
L 416.530677 235.470588 
L 416.671857 235.128578 
L 416.813037 234.102546 
L 416.954217 234.34684 
L 417.518936 232.929939 
L 417.801296 231.12217 
L 417.942476 231.317604 
L 418.083656 229.949562 
L 418.224836 230.780159 
L 418.366016 230.096138 
L 418.507195 230.04728 
L 419.354275 227.8975 
L 419.495455 225.845437 
L 419.636634 226.969185 
L 419.777814 225.650002 
L 419.918994 226.138589 
L 420.342534 225.112557 
L 420.483714 224.086526 
L 420.624893 224.330819 
L 421.048433 223.255929 
L 421.330793 222.181039 
L 421.471973 222.13218 
L 421.613153 220.764139 
L 421.754332 221.301584 
L 422.742591 218.858652 
L 422.883771 217.539469 
L 423.024951 214.412516 
L 423.166131 217.295175 
L 423.448491 216.611155 
L 423.589671 215.243113 
L 423.73085 215.780558 
L 423.87203 215.438547 
L 424.01321 213.728495 
L 424.15439 214.559092 
L 424.43675 213.875071 
L 424.57793 210.845835 
L 424.71911 211.187846 
L 424.860289 212.311595 
L 425.001469 210.943553 
L 425.142649 211.480998 
L 425.707369 210.064097 
L 425.989728 208.989207 
L 426.130908 208.940349 
L 426.272088 206.937145 
L 426.413268 207.034862 
L 426.554448 207.572307 
L 427.683887 204.738506 
L 427.966246 201.611553 
L 428.107426 202.979595 
L 428.248606 202.930736 
L 428.389786 202.539867 
L 428.530966 201.562695 
L 428.672146 201.758129 
L 429.378045 199.999218 
L 429.801585 195.846234 
L 429.942765 195.162213 
L 430.507484 188.224287 
L 431.495743 169.706864 
L 435.731139 169.706864 
L 435.872319 267.424136 
L 534.557045 267.424136 
L 534.698224 169.706864 
L 704.678782 169.706864 
L 704.819962 170.390885 
L 704.961142 169.804581 
L 706.23176 169.804581 
L 706.37294 170.488602 
L 706.51412 169.902298 
L 709.620077 169.902298 
L 709.761257 170.244309 
L 709.902437 169.902298 
L 711.314236 169.902298 
L 711.455415 170.244309 
L 711.596595 170.293167 
L 711.737775 171.661209 
L 711.878955 170.19545 
L 712.867214 170.19545 
L 713.008394 170.53746 
L 713.149574 170.244309 
L 714.702552 170.244309 
L 714.843732 171.221481 
L 714.984912 170.342026 
L 715.267272 170.342026 
L 715.408452 170.684036 
L 715.549632 170.390885 
L 718.232049 170.390885 
L 718.373229 172.052078 
L 718.514409 170.586319 
L 718.937948 170.586319 
L 719.079128 170.92833 
L 719.220308 170.635178 
L 719.785028 170.635178 
L 719.926207 170.977188 
L 720.067387 171.026047 
L 720.208567 170.684036 
L 721.055646 170.684036 
L 721.196826 171.026047 
L 721.338006 170.732895 
L 721.620366 170.732895 
L 721.761546 172.100937 
L 721.902725 170.92833 
L 723.314524 170.879471 
L 723.455704 172.247513 
L 723.596884 171.074905 
L 724.726323 171.074905 
L 724.867503 171.710068 
L 725.008683 171.123764 
L 725.149862 171.807785 
L 725.291042 171.221481 
L 726.561661 171.221481 
L 726.702841 172.198654 
L 726.844021 171.319199 
L 728.396999 171.319199 
L 728.538179 172.00322 
L 728.679359 171.416916 
L 729.385258 171.416916 
L 729.526438 171.758926 
L 729.667618 171.465775 
L 730.655877 171.465775 
L 730.797057 171.758926 
L 730.938237 171.465775 
L 731.926496 171.465775 
L 732.067676 171.807785 
L 732.208856 171.514633 
L 733.338295 171.514633 
L 733.479474 172.198654 
L 733.620654 171.61235 
L 733.761834 171.61235 
L 733.903014 171.954361 
L 734.044194 171.661209 
L 734.185374 171.661209 
L 734.326554 171.954361 
L 734.467733 171.661209 
L 736.585431 171.661209 
L 736.726611 172.00322 
L 736.867791 171.710068 
L 737.291331 171.710068 
L 737.432511 172.052078 
L 737.573691 171.758926 
L 738.27959 171.758926 
L 738.42077 172.784958 
L 738.56195 171.856644 
L 738.703129 172.540665 
L 738.844309 171.954361 
L 740.397288 171.954361 
L 740.538468 172.296371 
L 740.679648 172.00322 
L 741.667907 172.00322 
L 741.809086 172.638382 
L 741.950266 172.736099 
L 742.091446 172.149795 
L 743.362065 172.149795 
L 743.503245 173.126968 
L 743.644425 172.247513 
L 745.338583 172.247513 
L 745.479763 173.273544 
L 745.620943 172.394089 
L 746.468022 172.394089 
L 746.609202 172.736099 
L 746.750382 172.442947 
L 747.032741 172.442947 
L 747.173921 173.76213 
L 747.456281 172.638382 
L 747.597461 172.638382 
L 747.738641 172.931534 
L 747.879821 172.638382 
L 748.7269 172.638382 
L 748.86808 174.006424 
L 749.00926 172.833816 
L 750.421058 172.833816 
L 750.562238 173.468979 
L 750.703418 172.882675 
L 751.268137 172.882675 
L 751.409317 173.224685 
L 751.550497 172.931534 
L 755.221174 172.931534 
L 755.503533 174.739303 
L 755.644713 173.273544 
L 757.056512 173.273544 
L 757.197692 174.641586 
L 757.338872 173.42012 
L 758.185951 173.42012 
L 758.327131 173.76213 
L 758.468311 173.468979 
L 758.60949 173.468979 
L 758.75067 174.153 
L 758.89185 173.566696 
L 760.444829 173.566696 
L 760.586009 169.706864 
L 797.151594 169.706864 
L 797.716313 206.888286 
L 798.563392 267.424136 
L 801.951709 267.424136 
L 802.092889 263.417728 
L 802.657608 226.382882 
L 803.504687 169.706864 
L 806.751824 169.706864 
L 807.316544 202.979595 
L 808.163623 267.424136 
L 811.26958 267.424136 
L 811.41076 264.736911 
L 811.975479 228.630379 
L 812.822559 169.706864 
L 816.069695 169.706864 
L 816.352055 183.338423 
L 816.775595 213.435343 
L 817.057955 235.861457 
L 817.057955 235.861457 
" clip-path="url(#p09de869b19)" style="fill: none; stroke: #2ca02c; stroke-linecap: square"/>
   </g>
   <g id="line2d_26">
    <path d="M 58.075 218.5655 
L 853.2 218.5655 
" clip-path="url(#p09de869b19)" style="fill: none; stroke: #000000; stroke-width: 0.5; stroke-linecap: square"/>
   </g>
   <g id="patch_8">
    <path d="M 58.075 272.31 
L 58.075 164.821 
" style="fill: none; stroke: #000000; stroke-width: 0.8; stroke-linejoin: miter; stroke-linecap: square"/>
   </g>
   <g id="patch_9">
    <path d="M 853.2 272.31 
L 853.2 164.821 
" style="fill: none; stroke: #000000; stroke-width: 0.8; stroke-linejoin: miter; stroke-linecap: square"/>
   </g>
   <g id="patch_10">
    <path d="M 58.075 272.31 
L 853.2 272.31 
" style="fill: none; stroke: #000000; stroke-width: 0.8; stroke-linejoin: miter; stroke-linecap: square"/>
   </g>
   <g id="patch_11">
    <path d="M 58.075 164.821 
L 853.2 164.821 
" style="fill: none; stroke: #000000; stroke-width: 0.8; stroke-linejoin: miter; stroke-linecap: square"/>
   </g>
   <g id="text_8">
    <!-- $K_p = 6.00$,  $K_i = 8.00$,  $K_d = 0.0350$,  $f_c = 60.00$ -->
    <g transform="translate(320.6975 158.821) scale(0.12 -0.12)">
     <defs>
      <path id="DejaVuSans-38" d="M 2034 2216 
Q 1584 2216 1326 1975 
Q 1069 1734 1069 1313 
Q 1069 891 1326 650 
Q 1584 409 2034 409 
Q 2484 409 2743 651 
Q 3003 894 3003 1313 
Q 3003 1734 2745 1975 
Q 2488 2216 2034 2216 
z
M 1403 2484 
Q 997 2584 770 2862 
Q 544 3141 544 3541 
Q 544 4100 942 4425 
Q 1341 4750 2034 4750 
Q 2731 4750 3128 4425 
Q 3525 4100 3525 3541 
Q 3525 3141 3298 2862 
Q 3072 2584 2669 2484 
Q 3125 2378 3379 2068 
Q 3634 1759 3634 1313 
Q 3634 634 3220 271 
Q 2806 -91 2034 -91 
Q 1263 -91 848 271 
Q 434 634 434 1313 
Q 434 1759 690 2068 
Q 947 2378 1403 2484 
z
M 1172 3481 
Q 1172 3119 1398 2916 
Q 1625 2713 2034 2713 
Q 2441 2713 2670 2916 
Q 2900 3119 2900 3481 
Q 2900 3844 2670 4047 
Q 2441 4250 2034 4250 
Q 1625 4250 1398 4047 
Q 1172 3844 1172 3481 
z
" transform="scale(0.015625)"/>
     </defs>
     <use xlink:href="#DejaVuSans-Oblique-4b" transform="translate(0 0.015625)"/>
     <use xlink:href="#DejaVuSans-Oblique-70" transform="translate(65.576172 -16.390625) scale(0.7)"/>
     <use xlink:href="#DejaVuSans-3d" transform="translate(132.226562 0.015625)"/>
     <use xlink:href="#DejaVuSans-36" transform="translate(235.498047 0.015625)"/>
     <use xlink:href="#DejaVuSans-2e" transform="translate(299.121094 0.015625)"/>
     <use xlink:href="#DejaVuSans-30" transform="translate(330.908203 0.015625)"/>
     <use xlink:href="#DejaVuSans-30" transform="translate(394.53125 0.015625)"/>
     <use xlink:href="#DejaVuSans-2c" transform="translate(458.154297 0.015625)"/>
     <use xlink:href="#DejaVuSans-20" transform="translate(489.941406 0.015625)"/>
     <use xlink:href="#DejaVuSans-20" transform="translate(521.728516 0.015625)"/>
     <use xlink:href="#DejaVuSans-Oblique-4b" transform="translate(553.515625 0.015625)"/>
     <use xlink:href="#DejaVuSans-Oblique-69" transform="translate(619.091797 -16.390625) scale(0.7)"/>
     <use xlink:href="#DejaVuSans-3d" transform="translate(660.756836 0.015625)"/>
     <use xlink:href="#DejaVuSans-38" transform="translate(764.02832 0.015625)"/>
     <use xlink:href="#DejaVuSans-2e" transform="translate(827.651367 0.015625)"/>
     <use xlink:href="#DejaVuSans-30" transform="translate(859.438477 0.015625)"/>
     <use xlink:href="#DejaVuSans-30" transform="translate(923.061523 0.015625)"/>
     <use xlink:href="#DejaVuSans-2c" transform="translate(986.68457 0.015625)"/>
     <use xlink:href="#DejaVuSans-20" transform="translate(1018.47168 0.015625)"/>
     <use xlink:href="#DejaVuSans-20" transform="translate(1050.258789 0.015625)"/>
     <use xlink:href="#DejaVuSans-Oblique-4b" transform="translate(1082.045898 0.015625)"/>
     <use xlink:href="#DejaVuSans-Oblique-64" transform="translate(1147.62207 -16.390625) scale(0.7)"/>
     <use xlink:href="#DejaVuSans-3d" transform="translate(1214.272461 0.015625)"/>
     <use xlink:href="#DejaVuSans-30" transform="translate(1317.543945 0.015625)"/>
     <use xlink:href="#DejaVuSans-2e" transform="translate(1381.166992 0.015625)"/>
     <use xlink:href="#DejaVuSans-30" transform="translate(1412.954102 0.015625)"/>
     <use xlink:href="#DejaVuSans-33" transform="translate(1476.577148 0.015625)"/>
     <use xlink:href="#DejaVuSans-35" transform="translate(1540.200195 0.015625)"/>
     <use xlink:href="#DejaVuSans-30" transform="translate(1603.823242 0.015625)"/>
     <use xlink:href="#DejaVuSans-2c" transform="translate(1667.446289 0.015625)"/>
     <use xlink:href="#DejaVuSans-20" transform="translate(1699.233398 0.015625)"/>
     <use xlink:href="#DejaVuSans-20" transform="translate(1731.020508 0.015625)"/>
     <use xlink:href="#DejaVuSans-Oblique-66" transform="translate(1762.807617 0.015625)"/>
     <use xlink:href="#DejaVuSans-Oblique-63" transform="translate(1798.012695 -16.390625) scale(0.7)"/>
     <use xlink:href="#DejaVuSans-3d" transform="translate(1858.71582 0.015625)"/>
     <use xlink:href="#DejaVuSans-36" transform="translate(1961.987305 0.015625)"/>
     <use xlink:href="#DejaVuSans-30" transform="translate(2025.610352 0.015625)"/>
     <use xlink:href="#DejaVuSans-2e" transform="translate(2089.233398 0.015625)"/>
     <use xlink:href="#DejaVuSans-30" transform="translate(2121.020508 0.015625)"/>
     <use xlink:href="#DejaVuSans-30" transform="translate(2184.643555 0.015625)"/>
    </g>
   </g>
  </g>
  <g id="axes_3">
   <g id="patch_12">
    <path d="M 58.075 410.215 
L 853.2 410.215 
L 853.2 302.726 
L 58.075 302.726 
z
" style="fill: #ffffff"/>
   </g>
   <g id="matplotlib.axis_5">
    <g id="xtick_13">
     <g id="line2d_27">
      <g>
       <use xlink:href="#mf84847b3d6" x="94.217045" y="410.215" style="stroke: #000000; stroke-width: 0.8"/>
      </g>
     </g>
    </g>
    <g id="xtick_14">
     <g id="line2d_28">
      <g>
       <use xlink:href="#mf84847b3d6" x="235.396911" y="410.215" style="stroke: #000000; stroke-width: 0.8"/>
      </g>
     </g>
    </g>
    <g id="xtick_15">
     <g id="line2d_29">
      <g>
       <use xlink:href="#mf84847b3d6" x="376.576776" y="410.215" style="stroke: #000000; stroke-width: 0.8"/>
      </g>
     </g>
    </g>
    <g id="xtick_16">
     <g id="line2d_30">
      <g>
       <use xlink:href="#mf84847b3d6" x="517.756641" y="410.215" style="stroke: #000000; stroke-width: 0.8"/>
      </g>
     </g>
    </g>
    <g id="xtick_17">
     <g id="line2d_31">
      <g>
       <use xlink:href="#mf84847b3d6" x="658.936506" y="410.215" style="stroke: #000000; stroke-width: 0.8"/>
      </g>
     </g>
    </g>
    <g id="xtick_18">
     <g id="line2d_32">
      <g>
       <use xlink:href="#mf84847b3d6" x="800.116371" y="410.215" style="stroke: #000000; stroke-width: 0.8"/>
      </g>
     </g>
    </g>
   </g>
   <g id="matplotlib.axis_6">
    <g id="ytick_7">
     <g id="line2d_33">
      <g>
       <use xlink:href="#m4fb9c69809" x="58.075" y="389.042924" style="stroke: #000000; stroke-width: 0.8"/>
      </g>
     </g>
     <g id="text_9">
      <!-- −20000 -->
      <g transform="translate(10.882812 392.842143) scale(0.1 -0.1)">
       <use xlink:href="#DejaVuSans-2212"/>
       <use xlink:href="#DejaVuSans-32" transform="translate(83.789062 0)"/>
       <use xlink:href="#DejaVuSans-30" transform="translate(147.412109 0)"/>
       <use xlink:href="#DejaVuSans-30" transform="translate(211.035156 0)"/>
       <use xlink:href="#DejaVuSans-30" transform="translate(274.658203 0)"/>
       <use xlink:href="#DejaVuSans-30" transform="translate(338.28125 0)"/>
      </g>
     </g>
    </g>
    <g id="ytick_8">
     <g id="line2d_34">
      <g>
       <use xlink:href="#m4fb9c69809" x="58.075" y="356.4705" style="stroke: #000000; stroke-width: 0.8"/>
      </g>
     </g>
     <g id="text_10">
      <!-- 0 -->
      <g transform="translate(44.7125 360.269719) scale(0.1 -0.1)">
       <use xlink:href="#DejaVuSans-30"/>
      </g>
     </g>
    </g>
    <g id="ytick_9">
     <g id="line2d_35">
      <g>
       <use xlink:href="#m4fb9c69809" x="58.075" y="323.898076" style="stroke: #000000; stroke-width: 0.8"/>
      </g>
     </g>
     <g id="text_11">
      <!-- 20000 -->
      <g transform="translate(19.2625 327.697295) scale(0.1 -0.1)">
       <use xlink:href="#DejaVuSans-32"/>
       <use xlink:href="#DejaVuSans-30" transform="translate(63.623047 0)"/>
       <use xlink:href="#DejaVuSans-30" transform="translate(127.246094 0)"/>
       <use xlink:href="#DejaVuSans-30" transform="translate(190.869141 0)"/>
       <use xlink:href="#DejaVuSans-30" transform="translate(254.492188 0)"/>
      </g>
     </g>
    </g>
   </g>
   <g id="line2d_36">
    <path d="M 94.217045 356.4705 
L 249.232537 356.359754 
L 314.881175 355.713191 
L 326.175564 355.602445 
L 391.541841 354.95914 
L 402.83623 354.848393 
L 416.248318 354.80442 
L 435.731139 354.80442 
L 435.872319 356.4705 
L 534.557045 356.4705 
L 534.698224 355.900483 
L 591.028991 355.900483 
L 591.17017 355.330465 
L 647.500937 355.330465 
L 647.642116 355.900483 
L 703.972883 355.900483 
L 704.114062 356.4705 
L 760.444829 356.4705 
L 760.586009 355.656189 
L 817.057955 355.656189 
L 817.057955 355.656189 
" clip-path="url(#pe944668a7b)" style="fill: none; stroke: #1f77b4; stroke-linecap: square"/>
   </g>
   <g id="line2d_37">
    <path d="M 94.217045 356.4705 
L 167.348216 356.4705 
L 167.489395 354.978683 
L 168.336475 354.998226 
L 169.748273 355.240891 
L 172.430691 355.968885 
L 174.266029 356.4705 
L 184.148619 356.467243 
L 193.89003 356.468871 
L 243.020623 356.367897 
L 244.150062 356.239236 
L 245.279501 356.354868 
L 246.55012 356.465614 
L 247.820739 356.371154 
L 249.656077 356.174091 
L 252.903214 356.413498 
L 255.726811 356.15129 
L 257.27979 356.439556 
L 257.985689 356.4705 
L 259.256308 356.363011 
L 261.938725 356.040544 
L 263.632884 356.341839 
L 264.621143 356.4705 
L 265.609402 356.382554 
L 268.574179 355.965627 
L 269.844798 356.159433 
L 271.397776 356.413498 
L 272.950755 356.219692 
L 275.209632 355.887454 
L 276.621431 356.100803 
L 278.17441 356.345096 
L 279.727388 356.157805 
L 282.127446 355.822309 
L 283.821604 356.107317 
L 284.951043 356.28158 
L 286.362842 356.126861 
L 288.7629 355.740878 
L 289.892338 355.872796 
L 292.151216 356.200149 
L 293.704195 355.970513 
L 295.680713 355.664333 
L 296.951332 355.825566 
L 299.21021 356.133375 
L 300.480828 355.955856 
L 302.880886 355.604074 
L 304.575044 355.882568 
L 305.704483 356.076374 
L 307.398642 355.874425 
L 309.65752 355.530786 
L 310.928138 355.709934 
L 313.610556 355.936312 
L 315.445894 355.581273 
L 316.434153 355.452612 
L 317.563592 355.568244 
L 319.96365 355.923283 
L 321.516628 355.695276 
L 323.634326 355.410268 
L 325.187305 355.66759 
L 326.457923 355.86791 
L 327.869722 355.718077 
L 330.26978 355.327208 
L 331.963938 355.57313 
L 333.375737 355.810908 
L 334.787536 355.669218 
L 337.611133 355.28975 
L 339.164111 355.560101 
L 340.011191 355.71482 
L 340.99945 355.680619 
L 343.258327 355.258806 
L 344.105407 355.20669 
L 345.376025 355.376067 
L 347.211364 355.66759 
L 348.764342 355.475412 
L 350.74086 355.117116 
L 352.435019 355.332094 
L 354.270357 355.587787 
L 355.540976 355.421668 
L 357.941033 355.063371 
L 361.18817 355.519385 
L 362.317609 355.382581 
L 364.717667 354.990083 
L 366.270645 355.201804 
L 367.400084 355.424925 
L 368.388343 355.423297 
L 370.647221 355.001484 
L 371.63548 354.941225 
L 373.047279 355.151317 
L 374.317898 355.38421 
L 375.306157 355.323951 
L 377.141495 354.985197 
L 378.129754 354.871194 
L 381.659251 355.317436 
L 383.918129 354.928196 
L 384.765208 354.819078 
L 388.435884 355.24252 
L 389.988863 355.012884 
L 391.259482 354.819078 
L 392.5301 354.91191 
L 394.365439 355.190404 
L 395.777237 355.014513 
L 397.894935 354.819078 
L 401.000892 355.012884 
L 403.54213 354.82885 
L 407.918706 354.819078 
L 417.518936 354.819078 
L 437.425297 354.916795 
L 440.672434 355.739249 
L 443.496032 356.4705 
L 448.296147 356.468871 
L 457.896378 356.468871 
L 536.392383 356.359754 
L 538.93362 355.789736 
L 539.921879 355.610588 
L 541.192498 355.708305 
L 544.439635 356.120346 
L 547.969132 355.706677 
L 549.94565 356.066602 
L 550.933909 356.143147 
L 552.486887 355.936312 
L 554.463406 355.669218 
L 556.298744 355.949341 
L 557.710542 356.146404 
L 558.981161 356.011229 
L 561.522399 355.654561 
L 562.934197 355.864653 
L 564.910716 356.144776 
L 566.463694 355.934684 
L 568.299032 355.665961 
L 569.428471 355.789736 
L 572.110889 356.121975 
L 573.663867 355.871167 
L 575.216846 355.657818 
L 576.628644 355.838595 
L 579.028702 356.123604 
L 580.72286 355.845109 
L 582.134659 355.657818 
L 583.546458 355.836966 
L 585.805336 356.131747 
L 587.075954 355.959113 
L 589.193652 355.672476 
L 590.605451 355.861396 
L 592.299609 356.107317 
L 593.711408 355.936312 
L 597.099725 355.108973 
L 597.946804 355.027542 
L 599.076243 355.146431 
L 601.75866 355.58453 
L 603.170459 355.408639 
L 605.288157 355.081286 
L 606.558776 355.237634 
L 608.535294 355.578016 
L 609.947093 355.429811 
L 612.48833 355.102458 
L 614.041309 355.350009 
L 615.453107 355.582901 
L 617.288445 355.351637 
L 619.123784 355.084543 
L 620.676762 355.299521 
L 622.79446 355.556844 
L 624.488619 355.297893 
L 626.041597 355.079657 
L 629.288734 355.58453 
L 630.841713 355.405382 
L 633.10059 355.087801 
L 635.077108 355.418411 
L 636.347727 355.571501 
L 638.041886 355.353266 
L 639.877224 355.087801 
L 641.571382 355.330465 
L 643.265541 355.579644 
L 644.818519 355.379324 
L 646.653857 355.084543 
L 648.065656 355.245777 
L 651.877512 356.201777 
L 652.583412 356.226207 
L 653.854031 356.071488 
L 656.677628 355.682247 
L 657.807067 355.83208 
L 660.207124 356.12849 
L 661.901283 355.863024 
L 663.171902 355.661075 
L 664.86606 355.846738 
L 666.842578 356.15129 
L 668.536737 355.931426 
L 670.230895 355.662704 
L 671.642694 355.814166 
L 673.760392 356.148033 
L 675.31337 355.959113 
L 677.431068 355.672476 
L 678.842867 355.863024 
L 680.678205 356.148033 
L 682.090004 355.988428 
L 684.207702 355.66759 
L 685.47832 355.812537 
L 687.737198 356.138261 
L 689.148997 355.960742 
L 691.266695 355.672476 
L 693.243213 355.981914 
L 694.372652 356.148033 
L 695.78445 356.011229 
L 698.466868 355.696905 
L 700.019846 355.95097 
L 701.431645 356.143147 
L 702.984624 355.959113 
L 705.102322 355.675733 
L 706.6553 355.892339 
L 709.761257 356.4705 
L 719.502668 356.468871 
L 729.102899 356.468871 
L 762.280167 356.358125 
L 764.962584 355.750649 
L 766.939102 355.34838 
L 768.068541 355.441211 
L 770.045059 355.846738 
L 771.033319 355.911883 
L 772.445117 355.739249 
L 774.703995 355.424925 
L 775.833434 355.566615 
L 777.951132 355.900483 
L 779.362931 355.724591 
L 781.480629 355.428182 
L 782.610067 355.561729 
L 784.868945 355.882568 
L 786.845463 355.568244 
L 787.974902 355.423297 
L 789.245521 355.558472 
L 791.363219 355.887454 
L 792.916198 355.69039 
L 794.610356 355.428182 
L 795.739795 355.538929 
L 798.422212 355.858138 
L 799.692831 355.657818 
L 801.24581 355.421668 
L 802.657608 355.587787 
L 804.916486 355.866282 
L 806.187105 355.688762 
L 808.163623 355.43144 
L 809.716602 355.672476 
L 811.26958 355.887454 
L 812.963738 355.659447 
L 814.375537 355.418411 
L 815.928516 355.591045 
L 817.057955 355.822309 
L 817.057955 355.822309 
" clip-path="url(#pe944668a7b)" style="fill: none; stroke: #ff7f0e; stroke-linecap: square"/>
   </g>
   <g id="line2d_38">
    <path d="M 94.217045 356.4705 
L 167.348216 356.4705 
L 167.489395 405.329136 
L 238.079328 405.329136 
L 238.502868 403.179356 
L 238.785227 399.759252 
L 239.491127 387.935462 
L 240.197026 370.248635 
L 240.620566 356.81251 
L 241.891184 307.611864 
L 242.597084 307.611864 
L 242.738263 311.862565 
L 243.020623 334.532972 
L 243.585343 405.329136 
L 245.420681 405.329136 
L 245.561861 402.886205 
L 246.12658 340.591443 
L 246.40894 308.784471 
L 246.55012 307.611864 
L 247.679559 307.611864 
L 247.820739 308.247026 
L 247.961919 315.820115 
L 248.244278 354.125285 
L 248.526638 405.231419 
L 248.808998 405.329136 
L 250.785516 405.329136 
L 250.926696 398.635503 
L 251.209055 361.893809 
L 251.491415 307.611864 
L 253.467933 307.611864 
L 253.609113 316.113266 
L 254.032653 370.883798 
L 254.315012 405.329136 
L 256.43271 405.329136 
L 256.57389 404.10767 
L 256.85625 375.134499 
L 257.27979 307.611864 
L 259.821027 307.611864 
L 259.962207 315.526963 
L 260.244567 352.024364 
L 260.526926 405.329136 
L 263.068164 405.329136 
L 263.350524 378.163735 
L 263.774063 307.611864 
L 266.597661 307.611864 
L 266.738841 310.689958 
L 267.0212 342.448071 
L 267.44474 405.329136 
L 269.703618 405.329136 
L 269.844798 404.10767 
L 270.127157 372.056405 
L 270.550697 307.611864 
L 273.374294 307.611864 
L 273.515474 313.084031 
L 273.797834 347.382794 
L 274.221373 405.329136 
L 276.480251 405.329136 
L 276.621431 401.078435 
L 276.903791 366.193369 
L 277.186151 307.611864 
L 280.150928 307.611864 
L 280.292108 311.276261 
L 280.574467 342.448071 
L 280.998007 405.329136 
L 283.398065 405.329136 
L 283.539244 397.414037 
L 283.821604 358.229411 
L 284.103964 307.611864 
L 287.068741 307.660722 
L 287.351101 335.070417 
L 287.77464 405.329136 
L 290.315878 405.329136 
L 290.598238 372.349557 
L 291.021777 307.611864 
L 293.845375 307.611864 
L 293.986555 310.054795 
L 294.268914 341.519757 
L 294.692454 405.329136 
L 297.233691 405.329136 
L 297.516051 378.505745 
L 297.939591 307.611864 
L 300.904368 307.611864 
L 301.045548 311.862565 
L 301.327907 342.448071 
L 301.751447 405.329136 
L 304.151505 405.329136 
L 304.292685 402.299901 
L 304.575044 371.421243 
L 304.998584 307.611864 
L 307.822181 307.611864 
L 307.963361 315.526963 
L 308.245721 352.024364 
L 308.528081 405.329136 
L 311.069318 405.329136 
L 311.210498 402.886205 
L 311.492858 369.320321 
L 311.916397 307.611864 
L 314.881175 307.660722 
L 315.163534 338.441663 
L 315.587074 405.329136 
L 318.128311 405.329136 
L 318.410671 375.720803 
L 318.834211 307.611864 
L 321.657808 307.611864 
L 321.798988 313.719193 
L 322.081348 345.575024 
L 322.504887 405.329136 
L 324.904945 405.329136 
L 325.046125 398.0492 
L 325.328485 358.229411 
L 325.610844 307.611864 
L 328.434442 307.611864 
L 328.575621 310.689958 
L 328.857981 338.783674 
L 329.281521 405.329136 
L 331.822758 405.329136 
L 331.963938 395.019964 
L 332.246298 352.122081 
L 332.528658 307.611864 
L 335.493435 307.611864 
L 335.634615 310.054795 
L 335.916974 340.34715 
L 336.340514 405.329136 
L 338.740572 405.329136 
L 338.881752 399.270665 
L 339.164111 360.672343 
L 339.446471 307.611864 
L 342.270068 307.611864 
L 342.411248 312.497727 
L 342.693608 339.467695 
L 343.117148 405.329136 
L 345.517205 405.329136 
L 345.658385 398.635503 
L 345.940745 359.157725 
L 346.223105 307.611864 
L 349.187882 307.611864 
L 349.329062 311.276261 
L 349.611421 343.376385 
L 350.176141 405.329136 
L 352.435019 405.329136 
L 352.576199 399.270665 
L 352.858558 360.721201 
L 353.140918 307.611864 
L 356.105695 307.611864 
L 356.388055 334.190962 
L 356.952774 405.329136 
L 359.352832 405.329136 
L 359.494012 396.24143 
L 359.776372 354.271861 
L 360.058731 307.611864 
L 363.023509 307.611864 
L 363.305868 333.848951 
L 363.870588 405.329136 
L 366.270645 405.329136 
L 366.694185 356.372783 
L 366.976545 307.611864 
L 369.800142 307.611864 
L 369.941322 313.084031 
L 370.223682 348.60426 
L 370.506041 405.329136 
L 372.906099 405.329136 
L 373.047279 401.664739 
L 373.329639 364.678751 
L 373.753178 307.611864 
L 376.435596 307.611864 
L 376.576776 308.247026 
L 376.859135 336.340742 
L 377.282675 405.329136 
L 379.682733 405.329136 
L 379.823912 398.0492 
L 380.106272 363.115275 
L 380.388632 307.611864 
L 383.353409 307.611864 
L 383.635769 328.669936 
L 383.918129 374.792489 
L 384.059308 405.329136 
L 386.459366 405.329136 
L 386.600546 404.10767 
L 386.882906 373.913033 
L 387.306445 307.611864 
L 390.130043 307.611864 
L 390.271222 314.940659 
L 390.553582 348.066815 
L 390.977122 405.329136 
L 392.67128 405.329136 
L 392.81246 394.43366 
L 393.518359 307.611864 
L 396.200777 307.611864 
L 396.341957 308.882188 
L 396.765496 345.770459 
L 397.189036 401.27387 
L 397.330216 405.329136 
L 398.318475 405.329136 
L 398.459655 402.886205 
L 398.600835 393.163336 
L 398.883194 352.073223 
L 399.165554 307.611864 
L 401.847971 307.611864 
L 401.989151 310.054795 
L 402.412691 333.213789 
L 403.25977 365.118479 
L 403.54213 369.36918 
L 403.68331 370.053201 
L 403.965669 378.994331 
L 404.530389 389.987525 
L 404.671569 390.085242 
L 404.812749 388.277472 
L 405.095108 376.062813 
L 405.659828 324.761245 
L 405.801008 309.17534 
L 405.942188 307.611864 
L 435.731139 307.611864 
L 435.872319 405.329136 
L 534.557045 405.329136 
L 534.698224 307.611864 
L 538.510081 307.660722 
L 538.792441 342.106061 
L 539.21598 405.329136 
L 542.180757 405.329136 
L 542.321937 396.827734 
L 542.604297 357.8874 
L 542.886657 307.611864 
L 545.710254 307.611864 
L 545.851434 314.8918 
L 546.133794 349.239422 
L 546.416153 405.329136 
L 549.098571 405.329136 
L 549.239751 399.270665 
L 549.52211 364.629892 
L 549.80447 307.611864 
L 552.628067 307.611864 
L 552.769247 314.8918 
L 553.192787 375.720803 
L 553.333967 405.329136 
L 556.016384 405.329136 
L 556.157564 398.0492 
L 556.439924 362.480112 
L 556.722283 307.611864 
L 559.545881 307.611864 
L 559.687061 316.748429 
L 559.82824 307.611864 
L 560.39296 405.329136 
L 563.075377 405.329136 
L 563.357737 380.606666 
L 563.781277 307.611864 
L 566.604874 307.611864 
L 566.887234 332.334334 
L 567.451953 405.329136 
L 569.993191 405.329136 
L 570.134371 396.827734 
L 570.41673 359.108866 
L 570.69909 307.611864 
L 573.522687 307.660722 
L 573.805047 335.070417 
L 574.369767 405.329136 
L 576.911004 405.329136 
L 577.052184 396.827734 
L 577.334544 359.402018 
L 577.616903 307.611864 
L 580.440501 307.660722 
L 580.72286 333.262648 
L 581.28758 405.329136 
L 583.828817 405.329136 
L 583.969997 396.827734 
L 584.252357 360.623484 
L 584.534717 307.611864 
L 587.358314 307.611864 
L 587.640674 332.627485 
L 588.205393 405.329136 
L 590.746631 405.329136 
L 590.887811 398.0492 
L 591.028991 382.756446 
L 591.17017 307.611864 
L 596.252646 307.611864 
L 596.393825 318.556198 
L 596.676185 368.196573 
L 596.817365 404.009953 
L 596.958545 405.329136 
L 599.923322 405.329136 
L 600.064502 402.886205 
L 600.346862 371.763253 
L 600.770401 307.611864 
L 603.452819 307.611864 
L 603.593999 309.468492 
L 603.876358 340.00514 
L 604.299898 405.329136 
L 606.982315 405.329136 
L 607.123495 399.270665 
L 607.405855 363.457285 
L 607.688215 307.611864 
L 610.370632 307.611864 
L 610.511812 309.468492 
L 610.794172 339.076825 
L 611.217711 405.329136 
L 613.900129 405.329136 
L 614.041309 398.0492 
L 614.323668 360.965495 
L 614.606028 307.611864 
L 617.288445 307.611864 
L 617.429625 310.054795 
L 617.711985 340.00514 
L 618.135525 405.329136 
L 620.817942 405.329136 
L 620.959122 397.462896 
L 621.665021 307.611864 
L 624.206259 307.611864 
L 624.347439 310.689958 
L 624.629798 337.904218 
L 625.194518 405.329136 
L 627.735756 405.329136 
L 627.876935 397.462896 
L 628.159295 357.8874 
L 628.441655 307.611864 
L 631.265252 307.660722 
L 631.547612 336.927045 
L 631.971151 405.329136 
L 634.512389 405.329136 
L 634.794749 393.407629 
L 635.077108 354.516155 
L 635.359468 307.611864 
L 638.041886 307.611864 
L 638.183066 309.468492 
L 638.324245 320.705978 
L 638.888965 405.329136 
L 641.571382 405.329136 
L 641.853742 376.649117 
L 642.277282 307.611864 
L 644.959699 307.611864 
L 645.100879 310.054795 
L 645.383239 341.861768 
L 645.806778 405.329136 
L 650.606894 405.329136 
L 650.748074 400.443273 
L 651.030433 357.056804 
L 651.312793 307.611864 
L 654.70111 307.611864 
L 654.84229 315.526963 
L 655.124649 351.389202 
L 655.407009 405.329136 
L 658.089426 405.329136 
L 658.230606 401.078435 
L 658.512966 365.900217 
L 658.936506 307.611864 
L 661.618923 307.611864 
L 661.760103 310.689958 
L 662.042463 341.861768 
L 662.466002 405.329136 
L 665.00724 405.329136 
L 665.14842 403.472508 
L 665.2896 393.456488 
L 665.571959 351.43806 
L 665.854319 307.611864 
L 668.677916 307.611864 
L 668.960276 335.70558 
L 669.524996 405.329136 
L 672.066233 405.329136 
L 672.348593 380.606666 
L 672.913312 307.611864 
L 675.59573 307.611864 
L 675.878089 333.5558 
L 676.442809 405.329136 
L 678.984047 405.329136 
L 679.266406 382.170143 
L 679.831126 307.611864 
L 682.513543 307.611864 
L 682.795903 332.334334 
L 683.360622 405.329136 
L 685.90186 405.329136 
L 686.04304 397.414037 
L 686.3254 361.258646 
L 686.607759 307.611864 
L 689.431357 307.611864 
L 689.572536 316.113266 
L 689.854896 351.09605 
L 690.137256 405.329136 
L 692.819673 405.329136 
L 692.960853 397.414037 
L 693.243213 360.965495 
L 693.525573 307.611864 
L 696.34917 307.611864 
L 696.49035 315.526963 
L 696.77271 349.874584 
L 697.055069 405.329136 
L 699.737487 405.329136 
L 700.019846 382.170143 
L 700.584566 307.611864 
L 703.266983 307.611864 
L 703.549343 332.334334 
L 704.114062 405.329136 
L 760.444829 405.329136 
L 760.586009 307.611864 
L 765.244944 307.611864 
L 765.386124 315.526963 
L 765.668484 359.597453 
L 765.950843 405.329136 
L 769.0568 405.329136 
L 769.19798 404.693974 
L 769.48034 372.691567 
L 769.90388 307.611864 
L 772.868657 307.660722 
L 773.151017 336.585035 
L 773.574556 405.329136 
L 776.256974 405.329136 
L 776.539333 379.727211 
L 776.962873 307.611864 
L 779.64529 307.611864 
L 779.78647 309.468492 
L 780.06883 341.275464 
L 780.492369 405.329136 
L 783.033607 405.329136 
L 783.315967 381.828132 
L 783.739506 307.611864 
L 786.421924 307.611864 
L 786.704284 334.777265 
L 787.127823 405.329136 
L 789.669061 405.329136 
L 789.810241 400.443273 
L 790.0926 366.779672 
L 790.51614 307.611864 
L 793.057377 307.611864 
L 793.339737 333.262648 
L 793.763277 405.329136 
L 796.304514 405.329136 
L 796.445694 398.635503 
L 796.728054 363.115275 
L 797.010414 307.611864 
L 799.692831 307.611864 
L 799.975191 334.777265 
L 800.39873 405.329136 
L 802.939968 405.329136 
L 803.081148 400.443273 
L 803.363508 366.193369 
L 803.645867 307.611864 
L 806.328285 307.611864 
L 806.610645 333.848951 
L 807.175364 405.329136 
L 809.575422 405.329136 
L 809.716602 399.270665 
L 809.998961 364.971903 
L 810.281321 307.611864 
L 812.963738 307.611864 
L 813.246098 335.070417 
L 813.669638 405.329136 
L 816.210875 405.329136 
L 816.352055 399.270665 
L 816.634415 364.043589 
L 816.916775 307.611864 
L 817.057955 307.611864 
L 817.057955 307.611864 
" clip-path="url(#pe944668a7b)" style="fill: none; stroke: #2ca02c; stroke-linecap: square"/>
   </g>
   <g id="line2d_39">
    <path d="M 58.075 356.4705 
L 853.2 356.4705 
" clip-path="url(#pe944668a7b)" style="fill: none; stroke: #000000; stroke-width: 0.5; stroke-linecap: square"/>
   </g>
   <g id="patch_13">
    <path d="M 58.075 410.215 
L 58.075 302.726 
" style="fill: none; stroke: #000000; stroke-width: 0.8; stroke-linejoin: miter; stroke-linecap: square"/>
   </g>
   <g id="patch_14">
    <path d="M 853.2 410.215 
L 853.2 302.726 
" style="fill: none; stroke: #000000; stroke-width: 0.8; stroke-linejoin: miter; stroke-linecap: square"/>
   </g>
   <g id="patch_15">
    <path d="M 58.075 410.215 
L 853.2 410.215 
" style="fill: none; stroke: #000000; stroke-width: 0.8; stroke-linejoin: miter; stroke-linecap: square"/>
   </g>
   <g id="patch_16">
    <path d="M 58.075 302.726 
L 853.2 302.726 
" style="fill: none; stroke: #000000; stroke-width: 0.8; stroke-linejoin: miter; stroke-linecap: square"/>
   </g>
   <g id="text_12">
    <!-- $K_p = 6.00$,  $K_i = 64.00$,  $K_d = 0.0350$,  $f_c = 60.00$ -->
    <g transform="translate(316.9175 296.726) scale(0.12 -0.12)">
     <defs>
      <path id="DejaVuSans-34" d="M 2419 4116 
L 825 1625 
L 2419 1625 
L 2419 4116 
z
M 2253 4666 
L 3047 4666 
L 3047 1625 
L 3713 1625 
L 3713 1100 
L 3047 1100 
L 3047 0 
L 2419 0 
L 2419 1100 
L 313 1100 
L 313 1709 
L 2253 4666 
z
" transform="scale(0.015625)"/>
     </defs>
     <use xlink:href="#DejaVuSans-Oblique-4b" transform="translate(0 0.015625)"/>
     <use xlink:href="#DejaVuSans-Oblique-70" transform="translate(65.576172 -16.390625) scale(0.7)"/>
     <use xlink:href="#DejaVuSans-3d" transform="translate(132.226562 0.015625)"/>
     <use xlink:href="#DejaVuSans-36" transform="translate(235.498047 0.015625)"/>
     <use xlink:href="#DejaVuSans-2e" transform="translate(299.121094 0.015625)"/>
     <use xlink:href="#DejaVuSans-30" transform="translate(330.908203 0.015625)"/>
     <use xlink:href="#DejaVuSans-30" transform="translate(394.53125 0.015625)"/>
     <use xlink:href="#DejaVuSans-2c" transform="translate(458.154297 0.015625)"/>
     <use xlink:href="#DejaVuSans-20" transform="translate(489.941406 0.015625)"/>
     <use xlink:href="#DejaVuSans-20" transform="translate(521.728516 0.015625)"/>
     <use xlink:href="#DejaVuSans-Oblique-4b" transform="translate(553.515625 0.015625)"/>
     <use xlink:href="#DejaVuSans-Oblique-69" transform="translate(619.091797 -16.390625) scale(0.7)"/>
     <use xlink:href="#DejaVuSans-3d" transform="translate(660.756836 0.015625)"/>
     <use xlink:href="#DejaVuSans-36" transform="translate(764.02832 0.015625)"/>
     <use xlink:href="#DejaVuSans-34" transform="translate(827.651367 0.015625)"/>
     <use xlink:href="#DejaVuSans-2e" transform="translate(891.274414 0.015625)"/>
     <use xlink:href="#DejaVuSans-30" transform="translate(923.061523 0.015625)"/>
     <use xlink:href="#DejaVuSans-30" transform="translate(986.68457 0.015625)"/>
     <use xlink:href="#DejaVuSans-2c" transform="translate(1050.307617 0.015625)"/>
     <use xlink:href="#DejaVuSans-20" transform="translate(1082.094727 0.015625)"/>
     <use xlink:href="#DejaVuSans-20" transform="translate(1113.881836 0.015625)"/>
     <use xlink:href="#DejaVuSans-Oblique-4b" transform="translate(1145.668945 0.015625)"/>
     <use xlink:href="#DejaVuSans-Oblique-64" transform="translate(1211.245117 -16.390625) scale(0.7)"/>
     <use xlink:href="#DejaVuSans-3d" transform="translate(1277.895508 0.015625)"/>
     <use xlink:href="#DejaVuSans-30" transform="translate(1381.166992 0.015625)"/>
     <use xlink:href="#DejaVuSans-2e" transform="translate(1444.790039 0.015625)"/>
     <use xlink:href="#DejaVuSans-30" transform="translate(1476.577148 0.015625)"/>
     <use xlink:href="#DejaVuSans-33" transform="translate(1540.200195 0.015625)"/>
     <use xlink:href="#DejaVuSans-35" transform="translate(1603.823242 0.015625)"/>
     <use xlink:href="#DejaVuSans-30" transform="translate(1667.446289 0.015625)"/>
     <use xlink:href="#DejaVuSans-2c" transform="translate(1731.069336 0.015625)"/>
     <use xlink:href="#DejaVuSans-20" transform="translate(1762.856445 0.015625)"/>
     <use xlink:href="#DejaVuSans-20" transform="translate(1794.643555 0.015625)"/>
     <use xlink:href="#DejaVuSans-Oblique-66" transform="translate(1826.430664 0.015625)"/>
     <use xlink:href="#DejaVuSans-Oblique-63" transform="translate(1861.635742 -16.390625) scale(0.7)"/>
     <use xlink:href="#DejaVuSans-3d" transform="translate(1922.338867 0.015625)"/>
     <use xlink:href="#DejaVuSans-36" transform="translate(2025.610352 0.015625)"/>
     <use xlink:href="#DejaVuSans-30" transform="translate(2089.233398 0.015625)"/>
     <use xlink:href="#DejaVuSans-2e" transform="translate(2152.856445 0.015625)"/>
     <use xlink:href="#DejaVuSans-30" transform="translate(2184.643555 0.015625)"/>
     <use xlink:href="#DejaVuSans-30" transform="translate(2248.266602 0.015625)"/>
    </g>
   </g>
  </g>
  <g id="axes_4">
   <g id="patch_17">
    <path d="M 58.075 548.12 
L 853.2 548.12 
L 853.2 440.631 
L 58.075 440.631 
z
" style="fill: #ffffff"/>
   </g>
   <g id="matplotlib.axis_7">
    <g id="xtick_19">
     <g id="line2d_40">
      <g>
       <use xlink:href="#mf84847b3d6" x="94.217045" y="548.12" style="stroke: #000000; stroke-width: 0.8"/>
      </g>
     </g>
     <g id="text_13">
      <!-- 0 -->
      <g transform="translate(91.035795 562.718437) scale(0.1 -0.1)">
       <use xlink:href="#DejaVuSans-30"/>
      </g>
     </g>
    </g>
    <g id="xtick_20">
     <g id="line2d_41">
      <g>
       <use xlink:href="#mf84847b3d6" x="235.396911" y="548.12" style="stroke: #000000; stroke-width: 0.8"/>
      </g>
     </g>
     <g id="text_14">
      <!-- 1000 -->
      <g transform="translate(222.671911 562.718437) scale(0.1 -0.1)">
       <defs>
        <path id="DejaVuSans-31" d="M 794 531 
L 1825 531 
L 1825 4091 
L 703 3866 
L 703 4441 
L 1819 4666 
L 2450 4666 
L 2450 531 
L 3481 531 
L 3481 0 
L 794 0 
L 794 531 
z
" transform="scale(0.015625)"/>
       </defs>
       <use xlink:href="#DejaVuSans-31"/>
       <use xlink:href="#DejaVuSans-30" transform="translate(63.623047 0)"/>
       <use xlink:href="#DejaVuSans-30" transform="translate(127.246094 0)"/>
       <use xlink:href="#DejaVuSans-30" transform="translate(190.869141 0)"/>
      </g>
     </g>
    </g>
    <g id="xtick_21">
     <g id="line2d_42">
      <g>
       <use xlink:href="#mf84847b3d6" x="376.576776" y="548.12" style="stroke: #000000; stroke-width: 0.8"/>
      </g>
     </g>
     <g id="text_15">
      <!-- 2000 -->
      <g transform="translate(363.851776 562.718437) scale(0.1 -0.1)">
       <use xlink:href="#DejaVuSans-32"/>
       <use xlink:href="#DejaVuSans-30" transform="translate(63.623047 0)"/>
       <use xlink:href="#DejaVuSans-30" transform="translate(127.246094 0)"/>
       <use xlink:href="#DejaVuSans-30" transform="translate(190.869141 0)"/>
      </g>
     </g>
    </g>
    <g id="xtick_22">
     <g id="line2d_43">
      <g>
       <use xlink:href="#mf84847b3d6" x="517.756641" y="548.12" style="stroke: #000000; stroke-width: 0.8"/>
      </g>
     </g>
     <g id="text_16">
      <!-- 3000 -->
      <g transform="translate(505.031641 562.718437) scale(0.1 -0.1)">
       <use xlink:href="#DejaVuSans-33"/>
       <use xlink:href="#DejaVuSans-30" transform="translate(63.623047 0)"/>
       <use xlink:href="#DejaVuSans-30" transform="translate(127.246094 0)"/>
       <use xlink:href="#DejaVuSans-30" transform="translate(190.869141 0)"/>
      </g>
     </g>
    </g>
    <g id="xtick_23">
     <g id="line2d_44">
      <g>
       <use xlink:href="#mf84847b3d6" x="658.936506" y="548.12" style="stroke: #000000; stroke-width: 0.8"/>
      </g>
     </g>
     <g id="text_17">
      <!-- 4000 -->
      <g transform="translate(646.211506 562.718437) scale(0.1 -0.1)">
       <use xlink:href="#DejaVuSans-34"/>
       <use xlink:href="#DejaVuSans-30" transform="translate(63.623047 0)"/>
       <use xlink:href="#DejaVuSans-30" transform="translate(127.246094 0)"/>
       <use xlink:href="#DejaVuSans-30" transform="translate(190.869141 0)"/>
      </g>
     </g>
    </g>
    <g id="xtick_24">
     <g id="line2d_45">
      <g>
       <use xlink:href="#mf84847b3d6" x="800.116371" y="548.12" style="stroke: #000000; stroke-width: 0.8"/>
      </g>
     </g>
     <g id="text_18">
      <!-- 5000 -->
      <g transform="translate(787.391371 562.718437) scale(0.1 -0.1)">
       <use xlink:href="#DejaVuSans-35"/>
       <use xlink:href="#DejaVuSans-30" transform="translate(63.623047 0)"/>
       <use xlink:href="#DejaVuSans-30" transform="translate(127.246094 0)"/>
       <use xlink:href="#DejaVuSans-30" transform="translate(190.869141 0)"/>
      </g>
     </g>
    </g>
   </g>
   <g id="matplotlib.axis_8">
    <g id="ytick_10">
     <g id="line2d_46">
      <g>
       <use xlink:href="#m4fb9c69809" x="58.075" y="526.947924" style="stroke: #000000; stroke-width: 0.8"/>
      </g>
     </g>
     <g id="text_19">
      <!-- −20000 -->
      <g transform="translate(10.882812 530.747143) scale(0.1 -0.1)">
       <use xlink:href="#DejaVuSans-2212"/>
       <use xlink:href="#DejaVuSans-32" transform="translate(83.789062 0)"/>
       <use xlink:href="#DejaVuSans-30" transform="translate(147.412109 0)"/>
       <use xlink:href="#DejaVuSans-30" transform="translate(211.035156 0)"/>
       <use xlink:href="#DejaVuSans-30" transform="translate(274.658203 0)"/>
       <use xlink:href="#DejaVuSans-30" transform="translate(338.28125 0)"/>
      </g>
     </g>
    </g>
    <g id="ytick_11">
     <g id="line2d_47">
      <g>
       <use xlink:href="#m4fb9c69809" x="58.075" y="494.3755" style="stroke: #000000; stroke-width: 0.8"/>
      </g>
     </g>
     <g id="text_20">
      <!-- 0 -->
      <g transform="translate(44.7125 498.174719) scale(0.1 -0.1)">
       <use xlink:href="#DejaVuSans-30"/>
      </g>
     </g>
    </g>
    <g id="ytick_12">
     <g id="line2d_48">
      <g>
       <use xlink:href="#m4fb9c69809" x="58.075" y="461.803076" style="stroke: #000000; stroke-width: 0.8"/>
      </g>
     </g>
     <g id="text_21">
      <!-- 20000 -->
      <g transform="translate(19.2625 465.602295) scale(0.1 -0.1)">
       <use xlink:href="#DejaVuSans-32"/>
       <use xlink:href="#DejaVuSans-30" transform="translate(63.623047 0)"/>
       <use xlink:href="#DejaVuSans-30" transform="translate(127.246094 0)"/>
       <use xlink:href="#DejaVuSans-30" transform="translate(190.869141 0)"/>
       <use xlink:href="#DejaVuSans-30" transform="translate(254.492188 0)"/>
      </g>
     </g>
    </g>
   </g>
   <g id="line2d_49">
    <path d="M 94.217045 494.3755 
L 249.232537 494.264754 
L 314.881175 493.618191 
L 326.175564 493.507445 
L 391.541841 492.86414 
L 402.83623 492.753393 
L 416.248318 492.70942 
L 435.731139 492.70942 
L 435.872319 494.3755 
L 534.557045 494.3755 
L 534.698224 493.805483 
L 591.028991 493.805483 
L 591.17017 493.235465 
L 647.500937 493.235465 
L 647.642116 493.805483 
L 703.972883 493.805483 
L 704.114062 494.3755 
L 760.444829 494.3755 
L 760.586009 493.561189 
L 817.057955 493.561189 
L 817.057955 493.561189 
" clip-path="url(#p6590bd2489)" style="fill: none; stroke: #1f77b4; stroke-linecap: square"/>
   </g>
   <g id="line2d_50">
    <path d="M 94.217045 494.3755 
L 167.348216 494.3755 
L 167.489395 493.984631 
L 168.760014 494.079091 
L 171.160072 494.373871 
L 180.760303 494.3755 
L 183.86626 494.3755 
L 241.326465 494.271268 
L 242.032364 494.246839 
L 244.573602 494.31687 
L 246.26776 494.202866 
L 249.091357 494.311984 
L 251.209055 494.154008 
L 253.891473 494.333156 
L 256.43271 494.093749 
L 259.256308 494.264754 
L 261.797545 494.043261 
L 264.197603 494.237067 
L 266.88002 494.000917 
L 269.421258 494.173551 
L 270.833057 493.93903 
L 271.680136 493.919486 
L 273.233114 494.15075 
L 274.221373 494.170294 
L 275.491992 493.996031 
L 276.903791 493.865742 
L 280.150928 494.020461 
L 282.268626 493.836426 
L 284.809863 494.038375 
L 287.492281 493.789196 
L 289.751159 494.013946 
L 291.445317 493.751738 
L 292.292396 493.704508 
L 293.421835 493.836426 
L 294.833634 493.971602 
L 296.386612 493.751738 
L 297.374871 493.650764 
L 298.50431 493.768024 
L 299.916109 493.929258 
L 301.469087 493.720794 
L 302.739706 493.59539 
L 304.575044 493.849455 
L 305.422124 493.854341 
L 307.116282 493.593762 
L 307.963361 493.54816 
L 309.23398 493.715908 
L 310.363419 493.818512 
L 311.916397 493.613305 
L 313.045836 493.499302 
L 314.034095 493.606791 
L 315.304714 493.769653 
L 316.575333 493.649135 
L 318.269491 493.447186 
L 319.54011 493.618191 
L 320.669549 493.719166 
L 322.081348 493.53676 
L 323.351966 493.399956 
L 324.622585 493.562818 
L 325.752024 493.668678 
L 329.281521 493.448815 
L 330.41096 493.616563 
L 331.399219 493.567704 
L 333.658097 493.325039 
L 336.764054 493.465101 
L 338.881752 493.279438 
L 341.564169 493.471615 
L 344.246586 493.238722 
L 346.929004 493.409728 
L 349.470241 493.183349 
L 351.729119 493.40647 
L 353.423278 493.163806 
L 354.411537 493.093775 
L 355.964515 493.308753 
L 356.952774 493.35924 
L 358.505753 493.15892 
L 359.635192 493.036773 
L 362.599969 493.294096 
L 365.847106 493.067717 
L 367.682444 493.251751 
L 371.070761 493.025373 
L 371.4943 493.098661 
L 372.2002 493.183349 
L 373.188459 493.134491 
L 375.164977 492.916255 
L 376.153236 493.020487 
L 377.423855 493.157291 
L 378.976833 492.952085 
L 379.965092 492.851111 
L 381.235711 492.983029 
L 382.36515 493.113319 
L 383.918129 492.919513 
L 385.329927 492.815281 
L 388.435884 492.965114 
L 390.553582 492.769679 
L 393.236 492.952085 
L 395.353698 492.735478 
L 396.059597 492.785966 
L 397.753755 492.935799 
L 400.718532 492.772937 
L 401.847971 492.917884 
L 402.97741 492.813652 
L 404.389209 492.724078 
L 405.942188 492.834824 
L 406.648087 492.79248 
L 408.059885 492.724078 
L 417.660116 492.730593 
L 420.201354 492.724078 
L 437.425297 492.831567 
L 441.519513 493.882028 
L 443.354852 494.3755 
L 536.251203 494.279411 
L 538.792441 493.730566 
L 539.63952 493.603534 
L 540.910138 493.702879 
L 543.027836 493.965087 
L 544.721995 493.73708 
L 545.569074 493.658907 
L 546.839693 493.789196 
L 548.110312 493.955316 
L 549.52211 493.790825 
L 550.792729 493.671936 
L 552.204528 493.854341 
L 553.333967 493.968345 
L 554.886945 493.779425 
L 556.157564 493.636106 
L 557.287003 493.751738 
L 559.404701 493.973231 
L 561.098859 493.715908 
L 562.087118 493.63122 
L 563.498917 493.80874 
L 565.051895 493.994403 
L 566.463694 493.816883 
L 567.875493 493.621448 
L 569.569651 493.838055 
L 570.98145 493.992774 
L 572.534428 493.789196 
L 573.946227 493.629591 
L 575.216846 493.781053 
L 576.911004 493.996031 
L 578.605162 493.769653 
L 579.875781 493.632849 
L 581.00522 493.754995 
L 582.981738 493.987888 
L 584.534717 493.769653 
L 584.675897 493.745224 
L 584.817077 493.606791 
L 585.240616 493.64262 
L 586.087695 493.645878 
L 587.640674 493.882028 
L 588.770113 493.99766 
L 590.323091 493.800597 
L 591.87607 493.606791 
L 593.570228 493.313639 
L 595.405566 493.004201 
L 596.676185 493.129605 
L 598.935063 493.434157 
L 600.488042 493.232208 
L 601.89984 493.043288 
L 603.170459 493.181721 
L 605.005797 493.427642 
L 606.135236 493.328297 
L 607.970574 493.051431 
L 610.229452 493.365755 
L 611.217711 493.424385 
L 612.48833 493.279438 
L 614.323668 493.046545 
L 616.017827 493.28921 
L 617.147266 493.440671 
L 618.559064 493.302239 
L 620.535582 493.057945 
L 621.947381 493.248494 
L 623.35918 493.426014 
L 624.770978 493.281067 
L 626.465137 493.056317 
L 629.712274 493.40647 
L 630.700533 493.281067 
L 632.535871 493.051431 
L 634.088849 493.268038 
L 635.359468 493.424385 
L 636.912447 493.246866 
L 638.324245 493.049802 
L 640.018404 493.261523 
L 641.006663 493.412985 
L 642.277282 493.313639 
L 644.536159 493.074232 
L 647.924476 493.378784 
L 648.912735 493.375527 
L 650.465714 493.629591 
L 652.865771 494.057919 
L 654.27757 493.9146 
L 656.677628 493.640992 
L 659.924765 493.956944 
L 662.889542 493.662164 
L 665.854319 493.953687 
L 668.819096 493.662164 
L 670.513255 493.945544 
L 671.501514 493.98626 
L 672.913312 493.792454 
L 674.325111 493.63122 
L 675.73691 493.807111 
L 677.148708 493.999288 
L 678.701687 493.82014 
L 679.972306 493.621448 
L 681.384104 493.756624 
L 683.360622 493.983002 
L 684.913601 493.756624 
L 686.3254 493.636106 
L 689.854896 493.922743 
L 692.537314 493.662164 
L 695.502091 493.956944 
L 698.466868 493.662164 
L 701.714005 493.930886 
L 704.255242 493.652392 
L 705.949401 493.917857 
L 708.349458 494.3755 
L 762.280167 494.28104 
L 764.256685 493.880399 
L 767.221462 493.302239 
L 769.0568 493.567704 
L 770.468599 493.764767 
L 772.162757 493.557932 
L 773.574556 493.369012 
L 774.845175 493.502559 
L 777.104053 493.727309 
L 778.939391 493.427642 
L 779.78647 493.367383 
L 781.339449 493.566075 
L 782.892427 493.746852 
L 784.304226 493.574218 
L 785.998384 493.385298 
L 787.551363 493.613305 
L 788.963161 493.741966 
L 790.37496 493.559561 
L 791.786759 493.377155 
L 793.339737 493.566075 
L 794.751536 493.746852 
L 796.022155 493.621448 
L 797.998673 493.380412 
L 799.692831 493.627963 
L 800.82227 493.745224 
L 802.234069 493.592133 
L 803.928227 493.382041 
L 805.057666 493.509074 
L 806.893004 493.746852 
L 808.163623 493.608419 
L 809.998961 493.382041 
L 811.55194 493.600276 
L 812.822559 493.743595 
L 814.516717 493.535131 
L 815.928516 493.380412 
L 817.057955 493.513959 
L 817.057955 493.513959 
" clip-path="url(#p6590bd2489)" style="fill: none; stroke: #ff7f0e; stroke-linecap: square"/>
   </g>
   <g id="line2d_51">
    <path d="M 94.217045 494.3755 
L 167.348216 494.3755 
L 167.489395 543.234136 
L 237.938148 543.234136 
L 238.220508 540.400335 
L 238.361688 540.693487 
L 238.785227 524.228127 
L 239.208767 497.111584 
L 239.914666 445.516864 
L 240.620566 445.516864 
L 240.761745 453.285387 
L 241.044105 507.567332 
L 241.185285 543.234136 
L 242.738263 543.234136 
L 242.879443 527.794807 
L 243.302983 445.516864 
L 244.573602 445.516864 
L 244.714782 454.800005 
L 245.279501 543.234136 
L 246.83248 543.234136 
L 246.973659 540.107184 
L 247.114839 517.534494 
L 247.397199 445.516864 
L 249.373717 445.516864 
L 249.514897 451.72191 
L 249.938437 543.234136 
L 251.914955 543.234136 
L 252.479674 445.516864 
L 254.597372 445.516864 
L 254.738552 450.158434 
L 255.303271 543.234136 
L 257.13861 543.234136 
L 257.27979 523.153237 
L 257.562149 445.516864 
L 259.962207 445.516864 
L 260.244567 509.033091 
L 260.385747 543.234136 
L 262.362265 543.234136 
L 262.503445 530.872901 
L 262.926984 445.516864 
L 265.044682 445.516864 
L 265.185862 461.005051 
L 265.468222 543.234136 
L 267.44474 543.234136 
L 267.58592 523.153237 
L 267.868279 445.516864 
L 270.127157 445.516864 
L 270.268337 461.005051 
L 270.691877 543.234136 
L 272.527215 543.234136 
L 272.668395 524.667855 
L 272.950755 445.516864 
L 275.350812 445.516864 
L 275.491992 454.800005 
L 275.633172 480.841658 
L 275.915532 543.234136 
L 277.75087 543.234136 
L 277.89205 535.514472 
L 278.315589 445.516864 
L 280.433287 445.516864 
L 280.574467 450.158434 
L 281.139187 543.234136 
L 282.833345 543.234136 
L 282.974525 540.107184 
L 283.115705 512.941782 
L 283.398065 445.516864 
L 285.656942 445.516864 
L 285.798122 464.083145 
L 286.080482 543.234136 
L 288.057 543.234136 
L 288.19818 526.231331 
L 288.48054 445.516864 
L 290.880597 445.516864 
L 291.021777 464.083145 
L 291.304137 543.234136 
L 293.280655 543.234136 
L 293.421835 537.02909 
L 293.845375 445.516864 
L 295.963073 445.516864 
L 296.104252 448.643816 
L 296.668972 543.234136 
L 298.50431 543.234136 
L 298.64549 529.309425 
L 298.92785 445.516864 
L 301.186728 445.516864 
L 301.327907 447.08034 
L 301.892627 543.234136 
L 303.727965 543.234136 
L 303.869145 532.387519 
L 304.292685 445.516864 
L 306.410383 445.516864 
L 306.551562 450.158434 
L 307.116282 543.234136 
L 308.95162 543.234136 
L 309.0928 529.309425 
L 309.51634 445.516864 
L 311.634038 445.516864 
L 311.775218 457.878099 
L 312.198757 543.234136 
L 314.034095 543.234136 
L 314.175275 533.950995 
L 314.598815 445.516864 
L 316.716513 445.516864 
L 316.857693 447.08034 
L 316.998873 469.946182 
L 317.281232 543.234136 
L 319.25775 543.234136 
L 319.39893 527.794807 
L 319.68129 445.516864 
L 321.940168 445.516864 
L 322.081348 456.363481 
L 322.504887 543.234136 
L 324.340225 543.234136 
L 324.481405 527.794807 
L 324.904945 445.516864 
L 327.022643 445.516864 
L 327.163823 454.800005 
L 327.305003 480.841658 
L 327.587362 543.234136 
L 329.281521 543.234136 
L 329.422701 538.592566 
L 329.563881 517.827645 
L 329.84624 445.516864 
L 332.105118 445.516864 
L 332.246298 459.441575 
L 332.669838 543.234136 
L 334.363996 543.234136 
L 334.505176 532.436378 
L 334.928715 445.516864 
L 337.046413 445.516864 
L 337.187593 447.08034 
L 337.328773 468.431564 
L 337.611133 543.234136 
L 339.587651 543.234136 
L 339.728831 521.58976 
L 340.011191 445.516864 
L 342.270068 445.516864 
L 342.411248 448.643816 
L 342.693608 515.8733 
L 342.834788 543.234136 
L 344.811306 543.234136 
L 344.952486 532.436378 
L 345.376025 445.516864 
L 347.634903 445.516864 
L 347.776083 461.005051 
L 348.199623 543.234136 
L 350.034961 543.234136 
L 350.176141 537.02909 
L 350.59968 445.516864 
L 352.999738 445.516864 
L 353.140918 467.16124 
L 353.423278 543.234136 
L 355.399796 543.234136 
L 355.540976 526.231331 
L 355.964515 445.516864 
L 358.364573 445.565722 
L 358.929292 543.234136 
L 360.764631 543.234136 
L 360.905811 521.58976 
L 361.18817 445.516864 
L 363.729408 445.565722 
L 364.294127 543.234136 
L 366.129466 543.234136 
L 366.270645 518.511666 
L 366.553005 445.516864 
L 368.811883 445.516864 
L 368.953063 453.285387 
L 369.376602 543.234136 
L 371.070761 543.234136 
L 371.77666 445.516864 
L 373.753178 445.516864 
L 373.894358 459.441575 
L 374.317898 543.234136 
L 376.012056 543.234136 
L 376.153236 538.592566 
L 376.717955 445.516864 
L 378.694474 445.516864 
L 378.835653 456.363481 
L 379.259193 543.234136 
L 381.094531 543.234136 
L 381.235711 527.794807 
L 381.518071 445.516864 
L 383.776949 445.516864 
L 384.059308 500.385112 
L 384.200488 543.234136 
L 386.035827 543.234136 
L 386.177006 541.67066 
L 386.318186 517.2902 
L 386.600546 445.516864 
L 388.859424 445.516864 
L 389.000604 465.646622 
L 389.282963 543.234136 
L 391.259482 543.234136 
L 391.400661 520.075143 
L 391.683021 445.516864 
L 393.941899 445.516864 
L 394.083079 462.519669 
L 394.365439 543.234136 
L 396.200777 543.234136 
L 396.341957 529.309425 
L 396.765496 445.516864 
L 398.883194 445.565722 
L 399.165554 509.033091 
L 399.306734 543.234136 
L 400.718532 543.234136 
L 401.283252 445.516864 
L 403.25977 445.516864 
L 403.40095 447.08034 
L 404.389209 543.185278 
L 404.812749 543.234136 
L 404.953928 543.234136 
L 405.095108 526.231331 
L 405.377468 445.516864 
L 435.731139 445.516864 
L 435.872319 543.234136 
L 534.557045 543.234136 
L 534.698224 445.516864 
L 538.368901 445.516864 
L 538.510081 451.72191 
L 538.93362 543.234136 
L 541.474858 543.234136 
L 541.616038 523.153237 
L 541.898398 445.516864 
L 544.298455 445.516864 
L 544.439635 464.083145 
L 544.721995 543.234136 
L 546.839693 543.234136 
L 546.980873 532.387519 
L 547.404412 445.516864 
L 549.38093 445.516864 
L 549.52211 459.441575 
L 549.94565 543.234136 
L 551.922168 543.234136 
L 552.204528 476.932967 
L 552.345708 445.516864 
L 554.745765 445.565722 
L 554.886945 470.239334 
L 555.169305 543.234136 
L 557.569363 543.234136 
L 557.710542 526.231331 
L 557.992902 445.516864 
L 560.53414 445.516864 
L 560.67532 457.878099 
L 561.098859 543.234136 
L 563.357737 543.234136 
L 563.498917 540.107184 
L 564.063636 445.516864 
L 566.463694 445.516864 
L 566.604874 461.005051 
L 566.887234 543.234136 
L 569.287291 543.234136 
L 569.428471 541.67066 
L 569.852011 445.516864 
L 572.393248 445.516864 
L 572.534428 461.005051 
L 572.957968 543.234136 
L 575.216846 543.234136 
L 575.358026 541.67066 
L 575.922745 445.516864 
L 578.322803 445.516864 
L 578.463983 454.800005 
L 578.887522 543.234136 
L 581.28758 543.234136 
L 581.56994 475.36949 
L 581.711119 445.516864 
L 584.252357 445.516864 
L 584.393537 451.72191 
L 584.817077 543.234136 
L 587.217134 543.234136 
L 587.358314 526.231331 
L 587.640674 445.516864 
L 590.181911 445.516864 
L 590.323091 450.158434 
L 590.746631 543.234136 
L 591.028991 543.234136 
L 591.17017 445.516864 
L 593.852588 445.516864 
L 593.993768 457.926957 
L 594.276127 543.234136 
L 597.240905 543.234136 
L 597.382085 518.511666 
L 597.664444 445.516864 
L 600.346862 445.516864 
L 600.488042 448.643816 
L 601.052761 543.234136 
L 603.311639 543.234136 
L 603.452819 538.592566 
L 603.593999 514.749551 
L 603.876358 445.516864 
L 606.558776 445.516864 
L 606.699956 454.800005 
L 607.123495 543.234136 
L 609.523553 543.234136 
L 609.664733 524.716713 
L 609.947093 445.516864 
L 612.62951 445.516864 
L 612.77069 451.72191 
L 612.91187 469.066726 
L 613.194229 543.234136 
L 615.735467 543.234136 
L 615.876647 520.075143 
L 616.159007 445.516864 
L 618.841424 445.516864 
L 618.982604 451.72191 
L 619.406143 543.234136 
L 621.806201 543.234136 
L 621.947381 530.872901 
L 622.370921 445.516864 
L 624.912158 445.516864 
L 625.053338 453.285387 
L 625.476878 543.234136 
L 627.876935 543.234136 
L 628.018115 527.794807 
L 628.300475 445.516864 
L 630.841713 445.516864 
L 630.982892 448.643816 
L 631.124072 475.858077 
L 631.406432 543.234136 
L 633.80649 543.234136 
L 633.94767 535.514472 
L 634.371209 445.516864 
L 636.912447 445.516864 
L 637.053627 461.005051 
L 637.477166 543.234136 
L 639.736044 543.234136 
L 639.877224 530.872901 
L 640.018404 508.495646 
L 640.159584 453.041094 
L 640.300763 445.516864 
L 642.700821 445.516864 
L 642.842001 457.926957 
L 643.265541 543.234136 
L 645.665598 543.234136 
L 645.806778 520.075143 
L 646.089138 445.516864 
L 647.500937 445.516864 
L 647.642116 543.234136 
L 651.171613 543.234136 
L 651.312793 535.514472 
L 651.595153 445.516864 
L 654.84229 445.516864 
L 654.983469 462.519669 
L 655.265829 543.234136 
L 657.807067 543.234136 
L 657.948247 523.153237 
L 658.230606 445.516864 
L 660.913024 445.516864 
L 661.054204 465.597763 
L 661.336563 543.234136 
L 663.736621 543.234136 
L 663.877801 537.02909 
L 664.301341 445.516864 
L 666.842578 445.516864 
L 666.983758 465.597763 
L 667.266118 543.234136 
L 669.666175 543.234136 
L 669.807355 540.107184 
L 670.372075 445.516864 
L 672.772132 445.516864 
L 672.913312 457.878099 
L 673.336852 543.234136 
L 675.59573 543.234136 
L 675.73691 541.67066 
L 676.301629 445.516864 
L 678.701687 445.516864 
L 678.842867 461.005051 
L 679.125226 543.234136 
L 681.525284 543.234136 
L 681.666464 540.107184 
L 682.231183 445.516864 
L 684.631241 445.516864 
L 684.772421 464.083145 
L 685.054781 543.234136 
L 687.454838 543.234136 
L 687.596018 540.107184 
L 687.737198 512.941782 
L 688.019558 445.516864 
L 690.560795 445.516864 
L 690.701975 465.597763 
L 690.984335 543.234136 
L 693.384393 543.234136 
L 693.525573 540.107184 
L 693.666752 512.941782 
L 693.949112 445.516864 
L 696.49035 445.516864 
L 696.63153 462.519669 
L 696.913889 543.234136 
L 699.313947 543.234136 
L 699.455127 541.67066 
L 700.019846 445.516864 
L 702.419904 445.516864 
L 702.561084 456.363481 
L 702.984624 543.234136 
L 760.444829 543.234136 
L 760.586009 445.516864 
L 765.386124 445.516864 
L 765.527304 447.08034 
L 765.950843 543.234136 
L 768.915621 543.234136 
L 769.0568 537.02909 
L 769.48034 445.516864 
L 772.021578 445.516864 
L 772.162757 448.643816 
L 772.303937 477.372695 
L 772.586297 543.234136 
L 775.127535 543.234136 
L 775.268714 535.514472 
L 775.692254 445.516864 
L 778.233492 445.516864 
L 778.374672 461.005051 
L 778.657031 543.234136 
L 781.198269 543.234136 
L 781.339449 538.592566 
L 781.480629 511.671457 
L 781.762988 445.516864 
L 784.304226 445.516864 
L 784.445406 456.363481 
L 784.868945 543.234136 
L 787.269003 543.234136 
L 787.410183 524.667855 
L 787.692543 445.516864 
L 790.23378 445.516864 
L 790.37496 447.08034 
L 790.93968 543.234136 
L 793.198557 543.234136 
L 793.339737 538.592566 
L 793.763277 445.516864 
L 796.304514 445.516864 
L 796.445694 457.878099 
L 796.869234 543.234136 
L 799.269292 543.234136 
L 799.410471 532.387519 
L 799.834011 445.516864 
L 802.375249 445.516864 
L 802.516428 467.16124 
L 802.798788 543.234136 
L 805.340026 543.234136 
L 805.481206 520.075143 
L 805.763565 445.516864 
L 808.304803 445.516864 
L 808.445983 450.158434 
L 809.010702 543.234136 
L 811.26958 543.234136 
L 811.41076 532.387519 
L 811.8343 445.516864 
L 814.375537 445.516864 
L 814.657897 513.38151 
L 814.799077 543.234136 
L 817.057955 543.234136 
L 817.057955 543.234136 
" clip-path="url(#p6590bd2489)" style="fill: none; stroke: #2ca02c; stroke-linecap: square"/>
   </g>
   <g id="line2d_52">
    <path d="M 58.075 494.3755 
L 853.2 494.3755 
" clip-path="url(#p6590bd2489)" style="fill: none; stroke: #000000; stroke-width: 0.5; stroke-linecap: square"/>
   </g>
   <g id="patch_18">
    <path d="M 58.075 548.12 
L 58.075 440.631 
" style="fill: none; stroke: #000000; stroke-width: 0.8; stroke-linejoin: miter; stroke-linecap: square"/>
   </g>
   <g id="patch_19">
    <path d="M 853.2 548.12 
L 853.2 440.631 
" style="fill: none; stroke: #000000; stroke-width: 0.8; stroke-linejoin: miter; stroke-linecap: square"/>
   </g>
   <g id="patch_20">
    <path d="M 58.075 548.12 
L 853.2 548.12 
" style="fill: none; stroke: #000000; stroke-width: 0.8; stroke-linejoin: miter; stroke-linecap: square"/>
   </g>
   <g id="patch_21">
    <path d="M 58.075 440.631 
L 853.2 440.631 
" style="fill: none; stroke: #000000; stroke-width: 0.8; stroke-linejoin: miter; stroke-linecap: square"/>
   </g>
   <g id="text_22">
    <!-- $K_p = 6.00$,  $K_i = 256.00$,  $K_d = 0.0350$,  $f_c = 60.00$ -->
    <g transform="translate(313.0775 434.631) scale(0.12 -0.12)">
     <use xlink:href="#DejaVuSans-Oblique-4b" transform="translate(0 0.015625)"/>
     <use xlink:href="#DejaVuSans-Oblique-70" transform="translate(65.576172 -16.390625) scale(0.7)"/>
     <use xlink:href="#DejaVuSans-3d" transform="translate(132.226562 0.015625)"/>
     <use xlink:href="#DejaVuSans-36" transform="translate(235.498047 0.015625)"/>
     <use xlink:href="#DejaVuSans-2e" transform="translate(299.121094 0.015625)"/>
     <use xlink:href="#DejaVuSans-30" transform="translate(330.908203 0.015625)"/>
     <use xlink:href="#DejaVuSans-30" transform="translate(394.53125 0.015625)"/>
     <use xlink:href="#DejaVuSans-2c" transform="translate(458.154297 0.015625)"/>
     <use xlink:href="#DejaVuSans-20" transform="translate(489.941406 0.015625)"/>
     <use xlink:href="#DejaVuSans-20" transform="translate(521.728516 0.015625)"/>
     <use xlink:href="#DejaVuSans-Oblique-4b" transform="translate(553.515625 0.015625)"/>
     <use xlink:href="#DejaVuSans-Oblique-69" transform="translate(619.091797 -16.390625) scale(0.7)"/>
     <use xlink:href="#DejaVuSans-3d" transform="translate(660.756836 0.015625)"/>
     <use xlink:href="#DejaVuSans-32" transform="translate(764.02832 0.015625)"/>
     <use xlink:href="#DejaVuSans-35" transform="translate(827.651367 0.015625)"/>
     <use xlink:href="#DejaVuSans-36" transform="translate(891.274414 0.015625)"/>
     <use xlink:href="#DejaVuSans-2e" transform="translate(954.897461 0.015625)"/>
     <use xlink:href="#DejaVuSans-30" transform="translate(986.68457 0.015625)"/>
     <use xlink:href="#DejaVuSans-30" transform="translate(1050.307617 0.015625)"/>
     <use xlink:href="#DejaVuSans-2c" transform="translate(1113.930664 0.015625)"/>
     <use xlink:href="#DejaVuSans-20" transform="translate(1145.717773 0.015625)"/>
     <use xlink:href="#DejaVuSans-20" transform="translate(1177.504883 0.015625)"/>
     <use xlink:href="#DejaVuSans-Oblique-4b" transform="translate(1209.291992 0.015625)"/>
     <use xlink:href="#DejaVuSans-Oblique-64" transform="translate(1274.868164 -16.390625) scale(0.7)"/>
     <use xlink:href="#DejaVuSans-3d" transform="translate(1341.518555 0.015625)"/>
     <use xlink:href="#DejaVuSans-30" transform="translate(1444.790039 0.015625)"/>
     <use xlink:href="#DejaVuSans-2e" transform="translate(1508.413086 0.015625)"/>
     <use xlink:href="#DejaVuSans-30" transform="translate(1540.200195 0.015625)"/>
     <use xlink:href="#DejaVuSans-33" transform="translate(1603.823242 0.015625)"/>
     <use xlink:href="#DejaVuSans-35" transform="translate(1667.446289 0.015625)"/>
     <use xlink:href="#DejaVuSans-30" transform="translate(1731.069336 0.015625)"/>
     <use xlink:href="#DejaVuSans-2c" transform="translate(1794.692383 0.015625)"/>
     <use xlink:href="#DejaVuSans-20" transform="translate(1826.479492 0.015625)"/>
     <use xlink:href="#DejaVuSans-20" transform="translate(1858.266602 0.015625)"/>
     <use xlink:href="#DejaVuSans-Oblique-66" transform="translate(1890.053711 0.015625)"/>
     <use xlink:href="#DejaVuSans-Oblique-63" transform="translate(1925.258789 -16.390625) scale(0.7)"/>
     <use xlink:href="#DejaVuSans-3d" transform="translate(1985.961914 0.015625)"/>
     <use xlink:href="#DejaVuSans-36" transform="translate(2089.233398 0.015625)"/>
     <use xlink:href="#DejaVuSans-30" transform="translate(2152.856445 0.015625)"/>
     <use xlink:href="#DejaVuSans-2e" transform="translate(2216.479492 0.015625)"/>
     <use xlink:href="#DejaVuSans-30" transform="translate(2248.266602 0.015625)"/>
     <use xlink:href="#DejaVuSans-30" transform="translate(2311.889648 0.015625)"/>
    </g>
   </g>
  </g>
 </g>
 <defs>
  <clipPath id="p0abd5fa967">
   <rect x="58.075" y="26.916" width="795.125" height="107.489"/>
  </clipPath>
  <clipPath id="p09de869b19">
   <rect x="58.075" y="164.821" width="795.125" height="107.489"/>
  </clipPath>
  <clipPath id="pe944668a7b">
   <rect x="58.075" y="302.726" width="795.125" height="107.489"/>
  </clipPath>
  <clipPath id="p6590bd2489">
   <rect x="58.075" y="440.631" width="795.125" height="107.489"/>
  </clipPath>
 </defs>
</svg>
